<?xml version="1.0" encoding="UTF-8"?>
<svg version="1.1" xmlns="http://www.w3.org/2000/svg" width="200" height="200">
<path d="M0 0 C66 0 132 0 200 0 C200 66 200 132 200 200 C134 200 68 200 0 200 C0 134 0 68 0 0 Z " fill="#00AB4A" transform="translate(0,0)"/>
<path d="M0 0 C0.99 0.33 1.98 0.66 3 1 C3.11639832 1.58056656 3.23279663 2.16113312 3.35272217 2.7592926 C4.58038517 8.87770906 5.81473384 14.99475105 7.05273438 21.11108398 C7.51208475 23.38483617 7.96980768 25.65891784 8.42578125 27.93334961 C10.92569357 40.3972765 13.46596201 52.78207588 17 65 C18.81807502 60.83883209 20.63273575 56.67619791 22.44433594 52.51220703 C23.06027587 51.09774266 23.67712454 49.68367363 24.29492188 48.27001953 C25.1860255 46.23054203 26.07378247 44.18963517 26.9609375 42.1484375 C27.23497406 41.52319183 27.50901062 40.89794617 27.79135132 40.25375366 C29.40633338 36.5275213 30.70884212 32.87347364 32 29 C27.38 35.6 22.76 42.2 18 49 C17 45 17 45 18.921875 41.671875 C19.85176368 40.35543376 20.79545954 39.04867741 21.75 37.75 C22.76637598 36.32866171 23.78197743 34.90676932 24.796875 33.484375 C25.32474609 32.75154297 25.85261719 32.01871094 26.39648438 31.26367188 C28.00058552 28.99917343 29.54655717 26.70468833 31.078125 24.390625 C31.56829102 23.65489258 32.05845703 22.91916016 32.56347656 22.16113281 C33.5095802 20.73779675 34.44921918 19.31013903 35.38183594 17.87792969 C36.51200188 16.19831883 37.74776161 14.5906812 39 13 C39.99 13 40.98 13 42 13 C41.23122637 20.05716913 39.92217508 26.97263379 38.5625 33.9375 C38.34529297 35.06607422 38.12808594 36.19464844 37.90429688 37.35742188 C36.69596028 43.59505131 35.41234978 49.80536816 34 56 C34.52843506 55.60731934 35.05687012 55.21463867 35.60131836 54.81005859 C38.04504778 52.99611788 40.49125621 51.18554827 42.9375 49.375 C43.76830078 48.75753906 44.59910156 48.14007813 45.45507812 47.50390625 C50.8668768 43.5029656 56.36264896 39.67642213 62 36 C63.01923614 38.62771816 63.12602661 39.69516044 62.03125 42.34326172 C61.5259375 43.19678223 61.020625 44.05030273 60.5 44.9296875 C59.94530029 45.88415771 59.39060059 46.83862793 58.8190918 47.82202148 C58.2187915 48.82950439 57.61849121 49.8369873 57 50.875 C55.79552979 52.94507652 54.59369721 55.01669004 53.39453125 57.08984375 C52.81010254 58.09772949 52.22567383 59.10561523 51.62353516 60.14404297 C48.49935191 65.63978667 45.71915783 71.29471247 43 77 C44.77388086 75.90073597 46.54399684 74.79539498 48.3125 73.6875 C49.79169922 72.76517578 49.79169922 72.76517578 51.30078125 71.82421875 C53.50172035 70.33675339 55.23328988 68.9596614 57 67 C56.01 67 55.02 67 54 67 C54.33 66.01 54.66 65.02 55 64 C57.28591025 62.95019646 59.43917134 62.10201938 61.8125 61.3125 C63.05644531 60.87550781 64.30039063 60.43851563 65.58203125 59.98828125 C69 59 69 59 73 59 C71.40875955 62.63589887 69.1606096 65.40066524 66.625 68.4375 C63.71572415 71.93544203 60.84293992 75.4463251 58 79 C66.415 78.505 66.415 78.505 75 78 C75 78.99 75 79.98 75 81 C72.75389737 83.04844559 70.53005303 84.90530602 68.125 86.75 C67.42955078 87.28568604 66.73410156 87.82137207 66.01757812 88.37329102 C64.62919886 89.43922983 63.23829221 90.50188581 61.84472656 91.56103516 C60.37788679 92.7052323 58.97004114 93.92496306 57.5859375 95.16796875 C49.2023594 102.27988051 37.47202916 103.12237848 27 105 C24.83979543 105.40990167 22.67963916 105.82005801 20.51953125 106.23046875 C18.40942111 106.61510252 16.29875565 106.99670447 14.1875 107.375 C12.73126221 107.64509888 12.73126221 107.64509888 11.24560547 107.9206543 C4.86439048 108.99888239 -0.62239291 109.00985129 -7 108 C-7.67501556 107.89433716 -8.35003113 107.78867432 -9.04550171 107.67980957 C-14.05036321 106.88833749 -19.0429253 106.0361415 -24.0324707 105.15356445 C-26.68961136 104.68712937 -29.34947627 104.23909273 -32.00976562 103.79101562 C-33.71894942 103.49071614 -35.42794121 103.18932134 -37.13671875 102.88671875 C-37.9222966 102.75738449 -38.70787445 102.62805023 -39.51725769 102.49479675 C-46.42310132 101.23351298 -51.54897871 98.4027423 -57.0078125 93.94140625 C-58.02294922 93.11479492 -58.02294922 93.11479492 -59.05859375 92.27148438 C-59.74050781 91.70751953 -60.42242187 91.14355469 -61.125 90.5625 C-61.81464844 90.00240234 -62.50429688 89.44230469 -63.21484375 88.86523438 C-67.01897096 85.74846858 -70.59268662 82.54652268 -74 79 C-73 78 -73 78 -69.18359375 77.90234375 C-67.60153318 77.90901911 -66.01948841 77.92098125 -64.4375 77.9375 C-63.63119141 77.94201172 -62.82488281 77.94652344 -61.99414062 77.95117188 C-59.99606244 77.96299482 -57.99802217 77.98093086 -56 78 C-57.24716797 76.66195312 -57.24716797 76.66195312 -58.51953125 75.296875 C-59.61728739 74.11467608 -60.7149381 72.93237926 -61.8125 71.75 C-62.35970703 71.16347656 -62.90691406 70.57695313 -63.47070312 69.97265625 C-71 61.85014205 -71 61.85014205 -71 59 C-66.4724359 59.61833197 -62.4609599 60.76329512 -58.1875 62.375 C-57.04667969 62.79523438 -55.90585937 63.21546875 -54.73046875 63.6484375 C-53.37888672 64.31746094 -53.37888672 64.31746094 -52 65 C-51.67 65.99 -51.34 66.98 -51 68 C-52.65 67.67 -54.3 67.34 -56 67 C-51.05 70.3 -46.1 73.6 -41 77 C-43.0169753 73.08130514 -45.03846859 69.1650487 -47.0625 65.25 C-47.62388672 64.15816406 -48.18527344 63.06632812 -48.76367188 61.94140625 C-52.20086774 55.30270795 -55.81672493 48.87202906 -59.81030273 42.54980469 C-61 40 -61 40 -60.68774414 37.66113281 C-60.46078857 37.11295898 -60.23383301 36.56478516 -60 36 C-56.6404104 37.95192378 -53.52139708 40.03429785 -50.4453125 42.40625 C-49.5896167 43.06302734 -48.7339209 43.71980469 -47.85229492 44.39648438 C-46.9522876 45.09064453 -46.05228027 45.78480469 -45.125 46.5 C-36.49882702 53.11667958 -27.80137848 59.61866261 -19 66 C-23.41835993 54.23250873 -28.21348158 42.62127241 -33 31 C-32.80083984 32.14275391 -32.80083984 32.14275391 -32.59765625 33.30859375 C-31.53341395 39.5309155 -30.6281322 45.71867797 -30 52 C-33.40134067 49.73243956 -33.57790654 48.68284541 -34.40715027 44.84463501 C-34.54478287 44.14567108 -34.68241547 43.44670715 -34.82421875 42.7265625 C-34.97534622 42.00640961 -35.12647369 41.28625671 -35.28218079 40.54428101 C-35.59956652 39.02061916 -35.91104006 37.49571559 -36.21704102 35.96972656 C-36.68479494 33.6384818 -37.16979977 31.31137192 -37.65820312 28.984375 C-37.96456055 27.50281449 -38.26993175 26.02104963 -38.57421875 24.5390625 C-38.71792404 23.84414703 -38.86162933 23.14923157 -39.00968933 22.43325806 C-39.6574377 19.18649094 -40 16.33165773 -40 13 C-39.01 13 -38.02 13 -37 13 C-35.1953125 15.17578125 -35.1953125 15.17578125 -33.125 18.3125 C-32.3335561 19.4949408 -31.54187414 20.67722228 -30.75 21.859375 C-30.316875 22.51357422 -29.88375 23.16777344 -29.4375 23.84179688 C-26.70632402 27.94227168 -23.9093898 31.99806975 -21.125 36.0625 C-20.56570801 36.88339111 -20.00641602 37.70428223 -19.43017578 38.55004883 C-18.8989209 39.32888428 -18.36766602 40.10771973 -17.8203125 40.91015625 C-17.34867676 41.60246338 -16.87704102 42.29477051 -16.39111328 43.00805664 C-14.97146491 45.04085956 -13.4987416 47.02498917 -12 49 C-9.83405188 42.93791854 -8.22115959 36.93995519 -6.9921875 30.625 C-6.82123566 29.77446045 -6.65028381 28.9239209 -6.47415161 28.04760742 C-5.93570045 25.36611632 -5.40469359 22.68323364 -4.875 20 C-4.33747441 17.28835391 -3.79827216 14.57708485 -3.25442505 11.86669922 C-2.91778773 10.18810541 -2.58488915 8.50875667 -2.256073 6.82861328 C-1.1122678 1.1122678 -1.1122678 1.1122678 0 0 Z " fill="#F5FDF9" transform="translate(99,45)"/>
<path d="M0 0 C1.15364657 1.15364657 2.30661165 2.30797922 3.45703125 3.46484375 C4.4857566 4.48836036 5.5249288 5.50148285 6.57421875 6.50390625 C10.99110307 10.77664982 14.82859946 15.3912939 18.6796875 20.17578125 C20.88328406 22.85793666 23.16043825 25.43626421 25.5 28 C28.66832188 31.47190673 31.67781506 35.02599735 34.625 38.6875 C38.17261336 43.07681425 41.89337804 47.13106034 46 51 C43.94766315 53.2477975 42.99332739 54.0022242 40 55 C40.33 55.66 40.66 56.32 41 57 C33.61171705 57.32958883 26.68818934 56.09403022 19.4375 54.75 C18.24447266 54.54503906 17.05144531 54.34007812 15.82226562 54.12890625 C5.30914837 52.20043004 -0.96974116 48.30716114 -9.125 41.5625 C-9.81464844 41.00240234 -10.50429688 40.44230469 -11.21484375 39.86523438 C-15.01897096 36.74846858 -18.59268662 33.54652268 -22 30 C-21 29 -21 29 -17.18359375 28.90234375 C-15.60153318 28.90901911 -14.01948841 28.92098125 -12.4375 28.9375 C-11.63119141 28.94201172 -10.82488281 28.94652344 -9.99414062 28.95117188 C-7.99606244 28.96299482 -5.99802217 28.98093086 -4 29 C-4.83144531 28.10796875 -5.66289063 27.2159375 -6.51953125 26.296875 C-7.61728739 25.11467608 -8.7149381 23.93237926 -9.8125 22.75 C-10.35970703 22.16347656 -10.90691406 21.57695313 -11.47070312 20.97265625 C-19 12.85014205 -19 12.85014205 -19 10 C-14.4724359 10.61833197 -10.4609599 11.76329512 -6.1875 13.375 C-5.04667969 13.79523438 -3.90585937 14.21546875 -2.73046875 14.6484375 C-1.82941406 15.09445313 -0.92835937 15.54046875 0 16 C0.33 16.99 0.66 17.98 1 19 C-0.65 18.67 -2.3 18.34 -4 18 C3.425 22.95 3.425 22.95 11 28 C11.66 27.34 12.32 26.68 13 26 C11.39824931 22.93623059 9.79317052 19.87421666 8.1875 16.8125 C7.73568359 15.94818359 7.28386719 15.08386719 6.81835938 14.19335938 C5.00829561 10.74498971 3.20567563 7.33692047 1.17578125 4.01171875 C0 2 0 2 0 0 Z " fill="#F0FDF7" transform="translate(47,94)"/>
<path d="M0 0 C0.99 0.33 1.98 0.66 3 1 C3.495 4.96 3.495 4.96 4 9 C3.34 8.67 2.68 8.34 2 8 C2 6.68 2 5.36 2 4 C1.34 4 0.68 4 0 4 C0 35.68 0 67.36 0 100 C-3.1398451 98.43007745 -3.42143346 95.77552998 -4.625 92.5625 C-5.29402344 90.80099609 -5.29402344 90.80099609 -5.9765625 89.00390625 C-7 86 -7 86 -7 84 C-7.598125 83.835 -8.19625 83.67 -8.8125 83.5 C-12.22413403 81.16059381 -13.04812146 77.92738034 -14 74 C-14.21195108 71.59638459 -14.15118653 69.41898453 -14 67 C-16.475 67.99 -16.475 67.99 -19 69 C-19.10957031 67.98325195 -19.21914062 66.96650391 -19.33203125 65.91894531 C-20.00093546 61.9945117 -21.08978976 58.93156095 -22.6875 55.296875 C-22.95006592 54.6924054 -23.21263184 54.08793579 -23.4831543 53.46514893 C-24.31410923 51.55648373 -25.1566041 49.65319579 -26 47.75 C-26.84080078 45.83147175 -27.67920684 43.911915 -28.5168457 41.99200439 C-29.27418309 40.25952832 -30.03732911 38.52959487 -30.80078125 36.79980469 C-32 34 -32 34 -33 31 C-32.86722656 31.76183594 -32.73445313 32.52367187 -32.59765625 33.30859375 C-31.53341395 39.5309155 -30.6281322 45.71867797 -30 52 C-33.40134067 49.73243956 -33.57790654 48.68284541 -34.40715027 44.84463501 C-34.54478287 44.14567108 -34.68241547 43.44670715 -34.82421875 42.7265625 C-35.05090996 41.64633316 -35.05090996 41.64633316 -35.28218079 40.54428101 C-35.59956652 39.02061916 -35.91104006 37.49571559 -36.21704102 35.96972656 C-36.68479494 33.6384818 -37.16979977 31.31137192 -37.65820312 28.984375 C-37.96456055 27.50281449 -38.26993175 26.02104963 -38.57421875 24.5390625 C-38.71792404 23.84414703 -38.86162933 23.14923157 -39.00968933 22.43325806 C-39.6574377 19.18649094 -40 16.33165773 -40 13 C-39.01 13 -38.02 13 -37 13 C-35.1953125 15.17578125 -35.1953125 15.17578125 -33.125 18.3125 C-32.3335561 19.4949408 -31.54187414 20.67722228 -30.75 21.859375 C-30.316875 22.51357422 -29.88375 23.16777344 -29.4375 23.84179688 C-26.70632402 27.94227168 -23.9093898 31.99806975 -21.125 36.0625 C-20.56570801 36.88339111 -20.00641602 37.70428223 -19.43017578 38.55004883 C-18.8989209 39.32888428 -18.36766602 40.10771973 -17.8203125 40.91015625 C-17.34867676 41.60246338 -16.87704102 42.29477051 -16.39111328 43.00805664 C-14.97146491 45.04085956 -13.4987416 47.02498917 -12 49 C-9.83405188 42.93791854 -8.22115959 36.93995519 -6.9921875 30.625 C-6.82123566 29.77446045 -6.65028381 28.9239209 -6.47415161 28.04760742 C-5.93570045 25.36611632 -5.40469359 22.68323364 -4.875 20 C-4.33747441 17.28835391 -3.79827216 14.57708485 -3.25442505 11.86669922 C-2.91778773 10.18810541 -2.58488915 8.50875667 -2.256073 6.82861328 C-1.1122678 1.1122678 -1.1122678 1.1122678 0 0 Z " fill="#F8FDFA" transform="translate(99,45)"/>
<path d="M0 0 C0.99 0 1.98 0 3 0 C2.23122637 7.05716913 0.92217508 13.97263379 -0.4375 20.9375 C-0.65470703 22.06607422 -0.87191406 23.19464844 -1.09570312 24.35742188 C-2.30403972 30.59505131 -3.58765022 36.80536816 -5 43 C-4.47156494 42.60731934 -3.94312988 42.21463867 -3.39868164 41.81005859 C-0.95495222 39.99611788 1.49125621 38.18554827 3.9375 36.375 C4.76830078 35.75753906 5.59910156 35.14007813 6.45507812 34.50390625 C11.8668768 30.5029656 17.36264896 26.67642213 23 23 C24.09342596 25.72936404 24.09547936 26.76918592 22.9519043 29.53369141 C22.41476807 30.46358887 21.87763184 31.39348633 21.32421875 32.3515625 C20.74349609 33.36734375 20.16277344 34.383125 19.56445312 35.4296875 C18.94505859 36.48414063 18.32566406 37.53859375 17.6875 38.625 C17.07970703 39.6871875 16.47191406 40.749375 15.84570312 41.84375 C11.33041588 49.66958412 11.33041588 49.66958412 9 52 C8.505 48.535 8.505 48.535 8 45 C3.16838176 45.42833495 1.37047144 47.27524046 -1.75 50.875 C-2.1819165 51.36750244 -2.61383301 51.86000488 -3.05883789 52.36743164 C-6.69167766 56.5421097 -10.15957939 60.85260557 -13.6328125 65.16015625 C-17.11468392 69.33725282 -20.80848371 73.29999266 -24.51953125 77.2734375 C-29.07953536 82.1344838 -29.07953536 82.1344838 -32 88 C-32.66 88 -33.32 88 -34 88 C-34 85.36 -34 82.72 -34 80 C-33.01 79.505 -33.01 79.505 -32 79 C-30.89878945 76.83164914 -30.89878945 76.83164914 -29.9375 74.25 C-29.59589844 73.38890625 -29.25429687 72.5278125 -28.90234375 71.640625 C-28.0344672 69.10086505 -27.46073358 66.64090587 -27 64 C-26.34 64 -25.68 64 -25 64 C-24.855625 63.38125 -24.71125 62.7625 -24.5625 62.125 C-24 60 -24 60 -23 58 C-22.34 58 -21.68 58 -21 58 C-21.22018799 57.15308594 -21.44037598 56.30617187 -21.66723633 55.43359375 C-22.08096562 51.16456314 -21.08529595 48.95499041 -19.32421875 45.0625 C-19.03899857 44.41933838 -18.75377838 43.77617676 -18.45991516 43.11352539 C-17.54995002 41.0689763 -16.61962942 39.03452621 -15.6875 37 C-14.77050485 34.96373491 -13.85783346 32.92560081 -12.94721985 30.88647461 C-12.11757562 29.0342942 -11.27721721 27.18692395 -10.4362793 25.33984375 C-9.1257384 22.29238507 -8.0490244 19.14707319 -7 16 C-11.62 22.6 -16.24 29.2 -21 36 C-22 32 -22 32 -20.078125 28.671875 C-19.14823632 27.35543376 -18.20454046 26.04867741 -17.25 24.75 C-16.23362402 23.32866171 -15.21802257 21.90676932 -14.203125 20.484375 C-13.67525391 19.75154297 -13.14738281 19.01871094 -12.60351562 18.26367188 C-10.99941448 15.99917343 -9.45344283 13.70468833 -7.921875 11.390625 C-7.43170898 10.65489258 -6.94154297 9.91916016 -6.43652344 9.16113281 C-5.4904198 7.73779675 -4.55078082 6.31013903 -3.61816406 4.87792969 C-2.48799812 3.19831883 -1.25223839 1.5906812 0 0 Z " fill="#EEFBF5" transform="translate(138,58)"/>
<path d="M0 0 C-1.59124045 3.63589887 -3.8393904 6.40066524 -6.375 9.4375 C-9.28427585 12.93544203 -12.15706008 16.4463251 -15 20 C-6.585 19.505 -6.585 19.505 2 19 C2 19.99 2 20.98 2 22 C-0.24610263 24.04844559 -2.46994697 25.90530602 -4.875 27.75 C-5.57044922 28.28568604 -6.26589844 28.82137207 -6.98242188 29.37329102 C-8.37080114 30.43922983 -9.76170779 31.50188581 -11.15527344 32.56103516 C-12.62211321 33.7052323 -14.02995886 34.92496306 -15.4140625 36.16796875 C-27.29539134 46.24707355 -48.00499394 46.65145583 -63 48 C-62.01 47.505 -62.01 47.505 -61 47 C-61 46.01 -61 45.02 -61 44 C-61.66 43.67 -62.32 43.34 -63 43 C-61.515 42.505 -61.515 42.505 -60 42 C-60 41.01 -60 40.02 -60 39 C-59.34 38.34 -58.68 37.68 -58 37 C-56.68 37 -55.36 37 -54 37 C-54 36.34 -54 35.68 -54 35 C-53.01 35 -52.02 35 -51 35 C-50.67 34.01 -50.34 33.02 -50 32 C-48.33181228 31.53290744 -46.66079109 31.07343119 -44.9765625 30.66796875 C-42.08997877 29.69246318 -39.95367277 27.9915601 -37.578125 26.12109375 C-34.27744026 23.77630039 -31.20984906 23.89164883 -27.3125 23.9375 C-26.31863281 23.94652344 -25.32476562 23.95554687 -24.30078125 23.96484375 C-23.16189453 23.98224609 -23.16189453 23.98224609 -22 24 C-22 23.34 -22 22.68 -22 22 C-20.68 21.67 -19.36 21.34 -18 21 C-18 18.69 -18 16.38 -18 14 C-19.32 13.67 -20.64 13.34 -22 13 C-18.535 10.525 -18.535 10.525 -15 8 C-16.32 8 -17.64 8 -19 8 C-18.67 7.01 -18.34 6.02 -18 5 C-15.71408975 3.95019646 -13.56082866 3.10201938 -11.1875 2.3125 C-9.94355469 1.87550781 -8.69960937 1.43851562 -7.41796875 0.98828125 C-4 0 -4 0 0 0 Z " fill="#F0FCF6" transform="translate(172,104)"/>
<path d="M0 0 C3.3595896 1.95192378 6.47860292 4.03429785 9.5546875 6.40625 C10.83811035 7.39117432 10.83811035 7.39117432 12.14746094 8.39599609 C13.49759277 9.43747803 13.49759277 9.43747803 14.875 10.5 C22.05648165 16.01546789 29.2691564 21.46959868 36.64404297 26.72460938 C40.89382197 29.78764394 40.89382197 29.78764394 42 32 C43.32 31.67 44.64 31.34 46 31 C46.33 29.68 46.66 28.36 47 27 C46.95359375 27.68964844 46.9071875 28.37929687 46.859375 29.08984375 C46.59738774 35.91086916 47.35193607 41.1435763 51 47 C51.72703125 47.66708984 51.72703125 47.66708984 52.46875 48.34765625 C54.69550759 50.75050947 55.53471529 53.38764016 56.6875 56.4375 C57.12449219 57.57058594 57.56148437 58.70367187 58.01171875 59.87109375 C59.22129109 63.70060934 59.27186513 66.1844046 58 70 C61.3 70.33 64.6 70.66 68 71 C68 71.33 68 71.66 68 72 C61.18597425 73.05268874 55.63198569 72.93833398 49 71 C49 70.34 49 69.68 49 69 C48.01 68.505 48.01 68.505 47 68 C48.98 66.68 50.96 65.36 53 64 C52.52691406 63.55011719 52.05382812 63.10023438 51.56640625 62.63671875 C46.77668287 57.97770906 42.53213053 53.06322103 38.3515625 47.85546875 C35.98510612 44.98191458 33.52241697 42.23717383 31 39.5 C26.87849602 35.02121394 23.00570363 30.39521217 19.18359375 25.66015625 C15.90659887 21.6679675 12.46764396 17.82669157 9 14 C9.35191406 14.70382813 9.70382813 15.40765625 10.06640625 16.1328125 C14.04427083 24.08854167 18.02213542 32.04427083 22 40 C21.34 40 20.68 40 20 40 C19.67 40.66 19.34 41.32 19 42 C18.34257813 40.65035156 18.34257813 40.65035156 17.671875 39.2734375 C17.03234888 37.97341718 16.39161287 36.6739917 15.75 35.375 C15.40590088 34.67729492 15.06180176 33.97958984 14.70727539 33.26074219 C12.49784089 28.83707945 10.18180331 24.49199298 7.76171875 20.1796875 C7.21225586 19.19693848 6.66279297 18.21418945 6.09667969 17.20166016 C4.99968666 15.25012312 3.89240694 13.30432915 2.77441406 11.36474609 C2.27006836 10.46578613 1.76572266 9.56682617 1.24609375 8.640625 C0.78904053 7.84172852 0.3319873 7.04283203 -0.13891602 6.21972656 C-1.13198598 3.65976283 -0.9480578 2.53152757 0 0 Z " fill="#F4FDF8" transform="translate(39,81)"/>
<path d="M0 0 C0.33 0 0.66 0 1 0 C1 28.38 1 56.76 1 86 C-1.86540742 84.56729629 -2.1289858 82.7630917 -3.34765625 79.828125 C-3.78787109 78.77109375 -4.22808594 77.7140625 -4.68164062 76.625 C-5.13732422 75.51125 -5.59300781 74.3975 -6.0625 73.25 C-6.52205078 72.15171875 -6.98160156 71.0534375 -7.45507812 69.921875 C-12.62711397 57.40570016 -12.62711397 57.40570016 -11.14453125 51.4375 C-10.93618652 50.56859131 -10.7278418 49.69968262 -10.51318359 48.80444336 C-10.28195801 47.87897705 -10.05073242 46.95351074 -9.8125 46 C-7.97908943 38.33992118 -6.30191205 30.68389746 -4.875 22.9375 C-3.44928403 15.23605589 -1.86357257 7.609588 0 0 Z " fill="#06AA4B" transform="translate(98,59)"/>
<path d="M0 0 C-1.59124045 3.63589887 -3.8393904 6.40066524 -6.375 9.4375 C-9.28427585 12.93544203 -12.15706008 16.4463251 -15 20 C-6.585 19.505 -6.585 19.505 2 19 C2 19.99 2 20.98 2 22 C0.03125 23.82421875 0.03125 23.82421875 -2.5 25.6875 C-3.3353125 26.31011719 -4.170625 26.93273437 -5.03125 27.57421875 C-5.6809375 28.04472656 -6.330625 28.51523438 -7 29 C-7.495 28.01 -7.495 28.01 -8 27 C-7.34 27 -6.68 27 -6 27 C-5.505 25.515 -5.505 25.515 -5 24 C-3.4375 22.3125 -3.4375 22.3125 -2 21 C-3.98 21 -5.96 21 -8 21 C-8 21.66 -8 22.32 -8 23 C-13.8157164 25.22616461 -19.63239535 27.44978929 -25.44995117 29.67114258 C-27.42579886 30.42599164 -29.40138928 31.18151451 -31.37670898 31.93774414 C-34.22831701 33.0293135 -37.08086454 34.1183959 -39.93359375 35.20703125 C-40.80584091 35.54152786 -41.67808807 35.87602448 -42.57676697 36.22065735 C-48.00782688 38.2898418 -53.47073383 40.20957543 -59 42 C-56.36126227 39.24232271 -53.70660891 36.95503952 -50.55859375 34.80078125 C-49.31239258 33.94709961 -49.31239258 33.94709961 -48.04101562 33.07617188 C-47.18185547 32.49416016 -46.32269531 31.91214844 -45.4375 31.3125 C-44.57447266 30.71888672 -43.71144531 30.12527344 -42.82226562 29.51367188 C-37.4121024 25.82702607 -33.99998498 23.85882371 -27.3125 23.9375 C-26.31863281 23.94652344 -25.32476562 23.95554687 -24.30078125 23.96484375 C-23.16189453 23.98224609 -23.16189453 23.98224609 -22 24 C-22 23.34 -22 22.68 -22 22 C-20.68 21.67 -19.36 21.34 -18 21 C-18 18.69 -18 16.38 -18 14 C-19.32 13.67 -20.64 13.34 -22 13 C-18.535 10.525 -18.535 10.525 -15 8 C-16.32 8 -17.64 8 -19 8 C-18.67 7.01 -18.34 6.02 -18 5 C-15.71408975 3.95019646 -13.56082866 3.10201938 -11.1875 2.3125 C-9.94355469 1.87550781 -8.69960937 1.43851562 -7.41796875 0.98828125 C-4 0 -4 0 0 0 Z " fill="#E0FBED" transform="translate(172,104)"/>
<path d="M0 0 C0.66 0.33 1.32 0.66 2 1 C0.74896484 2.32451172 0.74896484 2.32451172 -0.52734375 3.67578125 C-6.51017262 10.04402349 -12.29387745 16.4641473 -17.7578125 23.2890625 C-20.67488684 26.81597817 -23.77904408 30.15472446 -26.89916992 33.50024414 C-30.83042204 37.74311568 -34.45302118 42.17291107 -38.02734375 46.72265625 C-39.8756113 48.85639879 -41.67650713 50.41461896 -44 52 C-36.48528529 27.24564565 -36.48528529 27.24564565 -26 20 C-24.4678498 18.80966809 -22.93601935 17.61890122 -21.40966797 16.42114258 C-15.43633378 11.75617771 -9.34384525 7.24168579 -3.265625 2.71484375 C-1.14692833 1.19261667 -1.14692833 1.19261667 0 0 Z " fill="#28A45F" transform="translate(149,92)"/>
<path d="M0 0 C13.778603 0.30931558 25.79677913 6.10110088 38 12 C38 12.66 38 13.32 38 14 C38.804375 14.268125 39.60875 14.53625 40.4375 14.8125 C41.283125 15.204375 42.12875 15.59625 43 16 C43.495 17.485 43.495 17.485 44 19 C42.99582031 18.86722656 41.99164063 18.73445313 40.95703125 18.59765625 C39.57560861 18.41859237 38.19409097 18.24026043 36.8125 18.0625 C36.0908667 17.9689624 35.3692334 17.8754248 34.62573242 17.77905273 C29.01405569 17.07350367 23.42272738 16.66637298 17.76953125 16.44140625 C12.12500415 15.54178486 8.81619042 12.01704255 5 8 C4.1028125 7.1646875 4.1028125 7.1646875 3.1875 6.3125 C2 5 2 5 2 3 C1.01 2.67 0.02 2.34 -1 2 C-0.67 1.34 -0.34 0.68 0 0 Z " fill="#F1FCF7" transform="translate(38,130)"/>
<path d="M0 0 C1.15364657 1.15364657 2.30661165 2.30797922 3.45703125 3.46484375 C4.4857566 4.48836036 5.5249288 5.50148285 6.57421875 6.50390625 C10.99110307 10.77664982 14.82859946 15.3912939 18.6796875 20.17578125 C20.88328406 22.85793666 23.16043825 25.43626421 25.5 28 C29.46715568 32.35487072 33.20768944 36.85980415 36.9140625 41.4375 C39.55141268 44.67739086 42.26408759 47.84317799 45 51 C40.39711142 49.3173975 36.88799873 46.96688099 32.94921875 44.09375 C30.82637418 42.58667094 28.73240546 41.20067259 26.51953125 39.84375 C17.54531673 34.17525314 13.14198626 28.4404548 8.83496094 18.80566406 C7.58264037 16.09742929 6.10081399 13.52900113 4.625 10.9375 C2.66591551 7.37068857 1.0678244 3.95095026 0 0 Z " fill="#06A849" transform="translate(47,94)"/>
<path d="M0 0 C0.33 0 0.66 0 1 0 C1.12375 0.804375 1.2475 1.60875 1.375 2.4375 C1.58125 3.283125 1.7875 4.12875 2 5 C2.66 5.33 3.32 5.66 4 6 C4.31241371 8.54941373 4.51303421 11.00361513 4.625 13.5625 C4.66367188 14.27341797 4.70234375 14.98433594 4.7421875 15.71679688 C4.83671783 17.47742425 4.91945817 19.23867728 5 21 C5.66 21 6.32 21 7 21 C7.12117188 22.07121094 7.24234375 23.14242187 7.3671875 24.24609375 C7.53597601 25.64328752 7.70527313 27.04041991 7.875 28.4375 C7.95363281 29.14455078 8.03226563 29.85160156 8.11328125 30.58007812 C8.33927676 32.39673432 8.66300727 34.20062522 9 36 C9.66 36.33 10.32 36.66 11 37 C11.33 36.34 11.66 35.68 12 35 C12.66 35 13.32 35 14 35 C14 34.34 14 33.68 14 33 C14.99 33.33 15.98 33.66 17 34 C16.505 34.763125 16.01 35.52625 15.5 36.3125 C13.75631692 38.92363751 13.75631692 38.92363751 14 42 C15.75053767 39.45870221 17.50044506 36.91697423 19.25 34.375 C19.74113281 33.66214844 20.23226562 32.94929688 20.73828125 32.21484375 C23.52524772 28.16445248 26.28470605 24.09880087 29 20 C29.33 20.66 29.66 21.32 30 22 C29.21913545 24.18053095 28.32913573 26.32221321 27.39453125 28.44140625 C27.11405441 29.08311264 26.83357758 29.72481903 26.54460144 30.38597107 C25.64120307 32.44811237 24.72701278 34.50526708 23.8125 36.5625 C23.21478291 37.92221333 22.61776949 39.28223621 22.02148438 40.64257812 C20.35754182 44.43281354 18.68043794 48.21704845 17 52 C16.56478027 52.98081543 16.12956055 53.96163086 15.68115234 54.97216797 C14.78864484 56.98198305 13.89457001 58.99110209 13 61 C10.93208993 57.44644505 10.18943234 53.75716042 9.4140625 49.76953125 C9.27213974 49.06573837 9.13021698 48.3619455 8.98399353 47.63682556 C8.52608795 45.36300391 8.07556735 43.08778592 7.625 40.8125 C7.00486788 37.71932743 6.38030989 34.62706441 5.75390625 31.53515625 C5.60197311 30.78374359 5.45003998 30.03233093 5.29350281 29.25814819 C3.91680143 22.4955112 2.34316376 15.79426201 0.62890625 9.109375 C-0.00284863 5.98591608 -0.12035247 3.17730525 0 0 Z " fill="#0EA54B" transform="translate(103,51)"/>
<path d="M0 0 C1.77391161 3.54782321 2.5316425 5.99963431 3.25390625 9.82421875 C3.46853516 10.93474609 3.68316406 12.04527344 3.90429688 13.18945312 C4.12150391 14.34380859 4.33871094 15.49816406 4.5625 16.6875 C4.99788136 18.98372415 5.43650332 21.27933707 5.87890625 23.57421875 C6.0704126 24.59088623 6.26191895 25.60755371 6.45922852 26.6550293 C6.76935428 28.94606358 6.76935428 28.94606358 8 30 C7.44263037 24.8907784 6.61043197 20.05068612 5.3046875 15.078125 C4.96521561 12.7627526 5.29254929 11.21202897 6 9 C9.90715213 17.12074757 13.47962491 25.36722064 16.9375 33.6875 C17.3512085 34.66799316 17.76491699 35.64848633 18.19116211 36.65869141 C18.57022705 37.57956543 18.94929199 38.50043945 19.33984375 39.44921875 C19.68394287 40.27768311 20.02804199 41.10614746 20.38256836 41.9597168 C21 44 21 44 20 46 C18.97261719 45.2265625 17.94523437 44.453125 16.88671875 43.65625 C8.97130496 37.70437938 1.03597844 31.78862853 -7 26 C-3.06204091 24.77580837 -0.83887763 25.51679728 3 27 C3.33 26.34 3.66 25.68 4 25 C3.01 24.67 2.02 24.34 1 24 C1 23.34 1 22.68 1 22 C1.66 22 2.32 22 3 22 C3 20.35 3 18.7 3 17 C2.34 17 1.68 17 1 17 C0.67 11.39 0.34 5.78 0 0 Z " fill="#19A858" transform="translate(60,66)"/>
<path d="M0 0 C3.45440417 2.00812444 6.67489848 4.16750401 9.86328125 6.57421875 C11.19262695 7.57485352 11.19262695 7.57485352 12.54882812 8.59570312 C13.46083984 9.28599609 14.37285156 9.97628906 15.3125 10.6875 C16.24384766 11.38939453 17.17519531 12.09128906 18.13476562 12.81445312 C20.42482391 14.54080476 22.71316645 16.26938031 25 18 C24.01 18.66 23.02 19.32 22 20 C21.63702064 21.97747122 21.63702064 21.97747122 21.8125 24.125 C21.874375 25.40375 21.93625 26.6825 22 28 C17.41283413 23.55618306 13.21237287 18.79771501 9 14 C9.35191406 14.70382813 9.70382813 15.40765625 10.06640625 16.1328125 C14.04427083 24.08854167 18.02213542 32.04427083 22 40 C21.34 40 20.68 40 20 40 C19.67 40.66 19.34 41.32 19 42 C18.34257813 40.65035156 18.34257813 40.65035156 17.671875 39.2734375 C17.03234888 37.97341718 16.39161287 36.6739917 15.75 35.375 C15.40590088 34.67729492 15.06180176 33.97958984 14.70727539 33.26074219 C12.49784089 28.83707945 10.18180331 24.49199298 7.76171875 20.1796875 C7.21225586 19.19693848 6.66279297 18.21418945 6.09667969 17.20166016 C4.99968666 15.25012312 3.89240694 13.30432915 2.77441406 11.36474609 C2.27006836 10.46578613 1.76572266 9.56682617 1.24609375 8.640625 C0.78904053 7.84172852 0.3319873 7.04283203 -0.13891602 6.21972656 C-1.13198598 3.65976283 -0.9480578 2.53152757 0 0 Z " fill="#E5FBF0" transform="translate(39,81)"/>
<path d="M0 0 C0.33 0 0.66 0 1 0 C1 28.38 1 56.76 1 86 C0.34 85.67 -0.32 85.34 -1 85 C-1.73075648 82.6859378 -2.40138258 80.35171131 -3 78 C-2.34 78 -1.68 78 -1 78 C-1.33 60.18 -1.66 42.36 -2 24 C-4.90992413 36.92899551 -4.90992413 36.92899551 -7 50 C-8.485 50.495 -8.485 50.495 -10 51 C-9.27352078 44.00985236 -7.92038058 37.17803282 -6.52587891 30.29321289 C-6.12952835 28.33487424 -5.73856068 26.37544865 -5.34765625 24.41601562 C-3.70394797 16.24290334 -1.92255315 8.11200599 0 0 Z " fill="#38A666" transform="translate(98,59)"/>
<path d="M0 0 C0.99 0 1.98 0 3 0 C4.60474434 1.97137133 5.99143815 3.88155696 7.375 6 C7.77130615 6.58998779 8.1676123 7.17997559 8.57592773 7.7878418 C11.47905264 12.13273134 14.2857665 16.53464812 17 21 C16.01 21.33 15.02 21.66 14 22 C13.61781233 23.65614657 13.28604898 25.32457024 13 27 C13.33 27.33 13.66 27.66 14 28 C14.04063832 29.66617115 14.042721 31.33388095 14 33 C11.99615009 29.99422513 10.73880258 27.15022736 9.375 23.8125 C8.92898437 22.72582031 8.48296875 21.63914062 8.0234375 20.51953125 C7.51683594 19.27236328 7.51683594 19.27236328 7 18 C7.13277344 18.76183594 7.26554687 19.52367188 7.40234375 20.30859375 C8.46658605 26.5309155 9.3718678 32.71867797 10 39 C6.59865933 36.73243956 6.42209346 35.68284541 5.59284973 31.84463501 C5.45521713 31.14567108 5.31758453 30.44670715 5.17578125 29.7265625 C4.94909004 28.64633316 4.94909004 28.64633316 4.71781921 27.54428101 C4.40043348 26.02061916 4.08895994 24.49571559 3.78295898 22.96972656 C3.31520506 20.6384818 2.83020023 18.31137192 2.34179688 15.984375 C2.03543945 14.50281449 1.73006825 13.02104963 1.42578125 11.5390625 C1.28207596 10.84414703 1.13837067 10.14923157 0.99031067 9.43325806 C0.3425623 6.18649094 0 3.33165773 0 0 Z " fill="#E5FBF0" transform="translate(59,58)"/>
<path d="M0 0 C-2.55194811 2.55194811 -4.77487639 3.14690208 -8.1875 4.375 C-14.12233637 6.53017657 -20.01408427 8.77927781 -25.88671875 11.09765625 C-27.29463404 11.65131554 -28.70259339 12.20486283 -30.1105957 12.75830078 C-32.24559271 13.59762712 -34.37950582 14.43929553 -36.5105896 15.28851318 C-38.53304245 16.09382553 -40.55902931 16.88957491 -42.5859375 17.68359375 C-43.7723584 18.15337646 -44.9587793 18.62315918 -46.18115234 19.10717773 C-49 20 -49 20 -51 19 C-47.79639895 16.72243286 -44.58631282 14.45417768 -41.375 12.1875 C-40.47136719 11.54490234 -39.56773438 10.90230469 -38.63671875 10.24023438 C-30.84413215 4.75129564 -25.02584258 1.61990034 -15.5 0.8125 C-14.67113281 0.73064453 -13.84226563 0.64878906 -12.98828125 0.56445312 C-8.6440203 0.15350952 -4.36844782 -0.09219127 0 0 Z " fill="#08A74A" transform="translate(164,126)"/>
<path d="M0 0 C0.64324219 0.06058594 1.28648438 0.12117188 1.94921875 0.18359375 C2.85285156 0.26738281 3.75648437 0.35117188 4.6875 0.4375 C5.68652344 0.53160156 6.68554688 0.62570313 7.71484375 0.72265625 C9.93361237 0.90997203 12.15552441 1.06278572 14.37890625 1.18359375 C16.04759766 1.27833984 16.04759766 1.27833984 17.75 1.375 C18.77609375 1.42398438 19.8021875 1.47296875 20.859375 1.5234375 C27.6177398 2.54896052 32.713421 5.95086637 38.0625 9.9375 C39.2402244 10.80168281 40.4186039 11.66497361 41.59765625 12.52734375 C42.1611377 12.94097168 42.72461914 13.35459961 43.30517578 13.78076172 C45.82411404 15.59285876 48.40560885 17.29804782 51 19 C49 20 49 20 47.00390625 19.44262695 C45.79541016 18.97022583 45.79541016 18.97022583 44.5625 18.48828125 C43.66660156 18.14216797 42.77070312 17.79605469 41.84765625 17.43945312 C40.90792969 17.06755859 39.96820313 16.69566406 39 16.3125 C37.63681641 15.78366211 37.63681641 15.78366211 36.24609375 15.24414062 C30.9654134 13.18970808 25.70544732 11.08410401 20.44628906 8.9753418 C16.43233922 7.37496958 12.40400639 5.81199416 8.375 4.25 C7.56160156 3.93417969 6.74820313 3.61835938 5.91015625 3.29296875 C3.94027983 2.5281932 1.9701659 1.76402948 0 1 C0 0.67 0 0.34 0 0 Z " fill="#09A64E" transform="translate(36,126)"/>
<path d="M0 0 C8.63999573 5.36338718 17.01324405 11.0764485 25.36523438 16.87426758 C26.89997373 17.9311199 28.44953467 18.96635645 30 20 C28.02 20.99 26.04 21.98 24 23 C24.33 23.66 24.66 24.32 25 25 C18.26795268 25.25645895 12.0986393 24.28162548 5.5 23 C3.98019531 22.71382812 3.98019531 22.71382812 2.4296875 22.421875 C-0.04817439 21.95435389 -2.52458268 21.48026672 -5 21 C-5 20.67 -5 20.34 -5 20 C-1.74931846 20.11014706 1.50023328 20.24071212 4.75 20.375 C5.67039062 20.4059375 6.59078125 20.436875 7.5390625 20.46875 C8.42851563 20.50742188 9.31796875 20.54609375 10.234375 20.5859375 C11.05131836 20.6173584 11.86826172 20.6487793 12.70996094 20.68115234 C15.16832958 21.02343693 16.85759999 21.7739277 19 23 C16.28395285 20.12579877 16.28395285 20.12579877 13 18 C13 17.34 13 16.68 13 16 C16.3 16.99 19.6 17.98 23 19 C21.99839844 18.33613281 20.99679688 17.67226562 19.96484375 16.98828125 C18.62235386 16.09641734 17.27990832 15.20448668 15.9375 14.3125 C15.28072266 13.87744141 14.62394531 13.44238281 13.94726562 12.99414062 C10.64404909 10.79742027 7.37492476 8.56920948 4.15625 6.25 C1.78137053 4.55701662 -0.3481564 3.16681119 -3 2 C-2.01 2 -1.02 2 0 2 C0 1.34 0 0.68 0 0 Z " fill="#D6F7E6" transform="translate(63,126)"/>
<path d="M0 0 C0.66 0 1.32 0 2 0 C3.99913541 3.6633093 5.99281298 7.32951816 7.98144531 10.99853516 C8.65898096 12.24674681 9.33801175 13.49414808 10.01855469 14.74072266 C10.99546501 16.53077554 11.96699348 18.32365648 12.9375 20.1171875 C13.52402344 21.19597168 14.11054687 22.27475586 14.71484375 23.38623047 C16 26 16 26 16 28 C11.56829827 26.48103632 7.96975924 24.07360191 4.1875 21.375 C3.59001953 20.95476562 2.99253906 20.53453125 2.37695312 20.1015625 C0.91479435 19.07220272 -0.54304899 18.0367177 -2 17 C-1.34 16.67 -0.68 16.34 0 16 C2.03144641 16.93446535 4.03533587 17.93224776 6 19 C3.50003341 16.0222241 0.95288929 15.05451517 -2.6875 13.8125 C-3.68136719 13.46832031 -4.67523438 13.12414062 -5.69921875 12.76953125 C-6.45847656 12.51558594 -7.21773437 12.26164062 -8 12 C-8 11.67 -8 11.34 -8 11 C-1.9453125 10.8046875 -1.9453125 10.8046875 0 11 C0.66 11.66 1.32 12.32 2 13 C1.34 8.71 0.68 4.42 0 0 Z " fill="#31A664" transform="translate(42,94)"/>
<path d="M0 0 C0.99 0 1.98 0 3 0 C2.32969264 6.09626909 1.23964287 12.00922254 -0.0625 18 C-0.24876953 18.87011719 -0.43503906 19.74023438 -0.62695312 20.63671875 C-1.0816125 22.75846252 -1.54037805 24.87932571 -2 27 C-2.33 27 -2.66 27 -3 27 C-4.25 20.375 -4.25 20.375 -2 17 C-1.92094936 14.66800612 -1.91201231 12.33167378 -2 10 C-2.4125 10.556875 -2.825 11.11375 -3.25 11.6875 C-4.37799248 13.1780615 -5.5327156 14.64894446 -6.71875 16.09375 C-9.70739694 19.90120432 -12.47281596 23.84936535 -15.25 27.8125 C-15.80429688 28.60076172 -16.35859375 29.38902344 -16.9296875 30.20117188 C-18.28789845 32.13310987 -19.64462475 34.06607205 -21 36 C-21.62011719 34.20800781 -21.62011719 34.20800781 -22 32 C-20.51198102 29.42318664 -19.00342604 27.13558227 -17.25 24.75 C-16.23362402 23.32866171 -15.21802257 21.90676932 -14.203125 20.484375 C-13.67525391 19.75154297 -13.14738281 19.01871094 -12.60351562 18.26367188 C-10.99941448 15.99917343 -9.45344283 13.70468833 -7.921875 11.390625 C-7.43170898 10.65489258 -6.94154297 9.91916016 -6.43652344 9.16113281 C-5.4904198 7.73779675 -4.55078082 6.31013903 -3.61816406 4.87792969 C-2.48799812 3.19831883 -1.25223839 1.5906812 0 0 Z " fill="#D4F8E2" transform="translate(138,58)"/>
<path d="M0 0 C2.55387603 2.55387603 3.33088014 5.00726118 4.625 8.375 C5.07101563 9.51710937 5.51703125 10.65921875 5.9765625 11.8359375 C7.2218452 15.6858573 7.28140906 18.15577282 6 22 C9.3 22.33 12.6 22.66 16 23 C16 23.33 16 23.66 16 24 C9.18597425 25.05268874 3.63198569 24.93833398 -3 23 C-3 22.34 -3 21.68 -3 21 C-3.66 20.67 -4.32 20.34 -5 20 C-3.02 18.68 -1.04 17.36 1 16 C-0.98 13.69 -2.96 11.38 -5 9 C-3.68 9.33 -2.36 9.66 -1 10 C-0.37542727 6.56484998 0 3.50935186 0 0 Z " fill="#F2FCF7" transform="translate(91,129)"/>
<path d="M0 0 C0.66 0 1.32 0 2 0 C2.33 0.99 2.66 1.98 3 3 C5.10584438 3.80563638 5.10584438 3.80563638 7.5625 4.1875 C8.38878906 4.34605469 9.21507813 4.50460938 10.06640625 4.66796875 C10.70449219 4.77753906 11.34257813 4.88710937 12 5 C12 5.33 12 5.66 12 6 C6.22633809 6.10497567 0.73117091 5.71639636 -5 5 C-2.36 5.99 0.28 6.98 3 8 C3 8.33 3 8.66 3 9 C1.865625 8.979375 0.73125 8.95875 -0.4375 8.9375 C-3.81575674 8.58422523 -3.81575674 8.58422523 -5 10 C-4.44570313 10.47050781 -3.89140625 10.94101563 -3.3203125 11.42578125 C-2.59585938 12.04839844 -1.87140625 12.67101562 -1.125 13.3125 C-0.40570313 13.92738281 0.31359375 14.54226562 1.0546875 15.17578125 C3 17 3 17 5 20 C1.12037659 18.30621319 -2.06452089 15.77714898 -5.375 13.1875 C-5.92671875 12.76146484 -6.4784375 12.33542969 -7.046875 11.89648438 C-10.76697997 9.0103466 -14.39731349 6.03126342 -18 3 C-17.67 2.34 -17.34 1.68 -17 1 C-11.39 1 -5.78 1 0 1 C0 0.67 0 0.34 0 0 Z " fill="#D9F9E7" transform="translate(43,122)"/>
<path d="M0 0 C0.99 0.33 1.98 0.66 3 1 C3.33 3.64 3.66 6.28 4 9 C3.34 8.67 2.68 8.34 2 8 C2 6.68 2 5.36 2 4 C1.34 4 0.68 4 0 4 C0.0319043 4.57250488 0.06380859 5.14500977 0.09667969 5.73486328 C0.32216293 13.11285054 -1.03227518 19.7270318 -2.75 26.875 C-3.30123741 29.25349945 -3.85069951 31.63241099 -4.3984375 34.01171875 C-4.67010742 35.18395996 -4.94177734 36.35620117 -5.22167969 37.56396484 C-6.35977432 42.58828851 -7.38135305 47.63290154 -8.375 52.6875 C-8.54225586 53.53618652 -8.70951172 54.38487305 -8.88183594 55.25927734 C-9.25710708 57.17235316 -9.62900277 59.08609077 -10 61 C-10.33 61 -10.66 61 -11 61 C-10.67 57.7 -10.34 54.4 -10 51 C-10.66 50.67 -11.32 50.34 -12 50 C-11.38511719 48.14568359 -11.38511719 48.14568359 -10.7578125 46.25390625 C-8.17147893 37.63634006 -6.62377709 28.75391904 -4.875 19.9375 C-4.33733533 17.23259984 -3.79825744 14.52802331 -3.25442505 11.82435608 C-2.91795083 10.15129639 -2.58505341 8.4775126 -2.256073 6.80296326 C-1.11254555 1.11254555 -1.11254555 1.11254555 0 0 Z " fill="#C7F7DF" transform="translate(99,45)"/>
<path d="M0 0 C0.33 0 0.66 0 1 0 C1.28307925 7.24997422 0.50974035 13.90961228 -1 21 C0.32 20.67 1.64 20.34 3 20 C3.33 21.65 3.66 23.3 4 25 C4.99 25 5.98 25 7 25 C7 24.34 7 23.68 7 23 C7.99 23.33 8.98 23.66 10 24 C7.71287089 25.83925787 5.42071465 27.67151494 3.125 29.5 C2.47402344 30.02464844 1.82304687 30.54929687 1.15234375 31.08984375 C0.52714844 31.58613281 -0.09804687 32.08242187 -0.7421875 32.59375 C-1.3182373 33.05458984 -1.89428711 33.51542969 -2.48779297 33.99023438 C-4 35 -4 35 -6 35 C-5.29030575 27.37282622 -3.92147041 19.94880122 -2.4375 12.4375 C-2.20353516 11.23802734 -1.96957031 10.03855469 -1.72851562 8.80273438 C-1.15556853 5.8678421 -0.57932273 2.93363922 0 0 Z " fill="#06AA4A" transform="translate(139,66)"/>
<path d="M0 0 C4.5275641 0.61833197 8.5390401 1.76329512 12.8125 3.375 C14.52373047 4.00535156 14.52373047 4.00535156 16.26953125 4.6484375 C17.17058594 5.09445313 18.07164063 5.54046875 19 6 C19.33 6.99 19.66 7.98 20 9 C17.69 8.34 15.38 7.68 13 7 C13.53625 7.7425 14.0725 8.485 14.625 9.25 C15.07875 10.1575 15.5325 11.065 16 12 C15.1875 14.3125 15.1875 14.3125 14 16 C14.66 16.33 15.32 16.66 16 17 C13 17 13 17 10.625 14.734375 C9.75875 13.74953125 8.8925 12.7646875 8 11.75 C7.13375 10.77546875 6.2675 9.8009375 5.375 8.796875 C0 2.46710526 0 2.46710526 0 0 Z " fill="#E9FBF0" transform="translate(28,104)"/>
<path d="M0 0 C0.33 0 0.66 0 1 0 C1 1.65 1 3.3 1 5 C1.804375 4.505 1.804375 4.505 2.625 4 C5.5391061 2.77300796 7.86867708 2.85766714 11 3 C8 5 8 5 5.375 6 C2.84860062 6.76047262 2.84860062 6.76047262 2 9 C3.65 8.67 5.3 8.34 7 8 C2.58990583 12.85110358 -2.58004353 16.348107 -8 20 C-8.66 19.67 -9.32 19.34 -10 19 C-6.7 12.73 -3.4 6.46 0 0 Z " fill="#23A55D" transform="translate(151,103)"/>
<path d="M0 0 C0.99062327 3.13141837 0.96527478 5.27507299 0.29296875 8.4765625 C0.11830078 9.311875 -0.05636719 10.1471875 -0.23632812 11.0078125 C-0.42646484 11.87148437 -0.61660156 12.73515625 -0.8125 13.625 C-0.99103516 14.49640625 -1.16957031 15.3678125 -1.35351562 16.265625 C-2.74203356 22.74203356 -2.74203356 22.74203356 -5 25 C-7.31 21.7 -9.62 18.4 -12 15 C-10.68 14.34 -9.36 13.68 -8 13 C-7.34 12.01 -6.68 11.02 -6 10 C-5.34 10 -4.68 10 -4 10 C-4 8.68 -4 7.36 -4 6 C-3.01 6 -2.02 6 -1 6 C-0.67 4.02 -0.34 2.04 0 0 Z " fill="#18A655" transform="translate(92,70)"/>
<path d="M0 0 C4.92460709 4.7657488 9.44790231 9.88083212 14 15 C14.69351563 15.77730469 15.38703125 16.55460937 16.1015625 17.35546875 C20.87234043 22.74468085 20.87234043 22.74468085 22 25 C18.28845183 23.65935182 15.32289425 21.99141423 12.125 19.6875 C11.26390625 19.07132813 10.4028125 18.45515625 9.515625 17.8203125 C8.68546875 17.21960938 7.8553125 16.61890625 7 16 C5.62541889 15.02024538 4.25048019 14.04099201 2.875 13.0625 C1.92625 12.381875 0.9775 11.70125 0 11 C0.66 10.67 1.32 10.34 2 10 C1.46274105 6.62294375 0.88935377 3.303314 0 0 Z " fill="#1DA659" transform="translate(70,120)"/>
<path d="M0 0 C0.33 0.66 0.66 1.32 1 2 C0.16098127 4.31616971 -0.74052418 6.51448834 -1.74609375 8.7578125 C-2.03605728 9.42086395 -2.32602081 10.08391541 -2.62477112 10.76705933 C-3.55504113 12.88967189 -4.49611262 15.00729791 -5.4375 17.125 C-6.06907516 18.56088329 -6.69994383 19.99707756 -7.33007812 21.43359375 C-8.87853578 24.95939346 -10.43669904 28.48075799 -12 32 C-13.15941038 28.52176885 -12.70820884 26.54104422 -12 23 C-13.32 23.33 -14.64 23.66 -16 24 C-11.98449002 17.5800661 -7.86219564 11.27028036 -3.48046875 5.09375 C-2.29321054 3.41467243 -1.14069932 1.71104898 0 0 Z " fill="#1EA458" transform="translate(132,71)"/>
<path d="M0 0 C1.32 0.33 2.64 0.66 4 1 C0.04 3.64 -3.92 6.28 -8 9 C-6.22625 8.319375 -4.4525 7.63875 -2.625 6.9375 C0.3984375 5.77734375 0.3984375 5.77734375 3 5 C3.66 5.33 4.32 5.66 5 6 C1.04 7.98 -2.92 9.96 -7 12 C-2.05 12 2.9 12 8 12 C4.71635596 13.64182202 3.29830746 14.27139163 -0.109375 14.6328125 C-0.86347656 14.71660156 -1.61757812 14.80039063 -2.39453125 14.88671875 C-3.17183594 14.96535156 -3.94914062 15.04398438 -4.75 15.125 C-5.54277344 15.21136719 -6.33554688 15.29773438 -7.15234375 15.38671875 C-9.10083141 15.59800054 -11.05032976 15.79992467 -13 16 C-12.34 15.67 -11.68 15.34 -11 15 C-11 14.01 -11 13.02 -11 12 C-11.66 11.67 -12.32 11.34 -13 11 C-12.01 10.67 -11.02 10.34 -10 10 C-10 9.01 -10 8.02 -10 7 C-9.34 6.34 -8.68 5.68 -8 5 C-6.68 5 -5.36 5 -4 5 C-4 4.34 -4 3.68 -4 3 C-3.01 3 -2.02 3 -1 3 C-0.67 2.01 -0.34 1.02 0 0 Z " fill="#CEF3DE" transform="translate(122,136)"/>
<path d="M0 0 C4.01095112 1.40709678 7.04675516 3.32592941 10.4375 5.875 C14.23207984 8.69529583 18.03422497 11.42760538 22 14 C20 15 20 15 17.97216797 14.42675781 C16.74457764 13.94480957 16.74457764 13.94480957 15.4921875 13.453125 C14.58726563 13.1025 13.68234375 12.751875 12.75 12.390625 C11.326875 11.82601562 11.326875 11.82601562 9.875 11.25 C8.01827336 10.52592833 6.16150315 9.80196839 4.3046875 9.078125 C3.41104492 8.72685547 2.51740234 8.37558594 1.59667969 8.01367188 C-1.92254187 6.63986519 -5.45896055 5.31643349 -9 4 C-5.34811918 2.92825237 -2.73567172 3.23588533 1 4 C1 4.66 1 5.32 1 6 C1.99 5.67 2.98 5.34 4 5 C4 4.34 4 3.68 4 3 C2.68 2.67 1.36 2.34 0 2 C0 1.34 0 0.68 0 0 Z " fill="#2DA362" transform="translate(65,131)"/>
<path d="M0 0 C0.91058531 3.07322544 1.08886184 5.80097361 1 9 C1.99 9.33 2.98 9.66 4 10 C2.43572266 11.12535156 2.43572266 11.12535156 0.83984375 12.2734375 C-4.06013402 16.4783567 -6.04885465 21.75091991 -8.4375 27.625 C-8.88287109 28.66140625 -9.32824219 29.6978125 -9.78710938 30.765625 C-12.31294297 36.67027561 -12.31294297 36.67027561 -13 43 C-13.66 43 -14.32 43 -15 43 C-15 40.36 -15 37.72 -15 35 C-14.01 34.505 -14.01 34.505 -13 34 C-11.89878945 31.83164914 -11.89878945 31.83164914 -10.9375 29.25 C-10.59589844 28.38890625 -10.25429687 27.5278125 -9.90234375 26.640625 C-9.0344672 24.10086505 -8.46073358 21.64090587 -8 19 C-7.34 19 -6.68 19 -6 19 C-5.7834375 18.071875 -5.7834375 18.071875 -5.5625 17.125 C-5 15 -5 15 -4 13 C-3.34 13 -2.68 13 -2 13 C-2.226875 12.154375 -2.45375 11.30875 -2.6875 10.4375 C-3.09143364 5.99422997 -1.97302401 3.94604801 0 0 Z " fill="#DBFAEB" transform="translate(119,103)"/>
<path d="M0 0 C-2.08144267 2.08144267 -3.19289793 2.57368138 -5.9140625 3.5078125 C-6.67460937 3.77207031 -7.43515625 4.03632813 -8.21875 4.30859375 C-9.0128125 4.57800781 -9.806875 4.84742188 -10.625 5.125 C-11.82769531 5.54072266 -11.82769531 5.54072266 -13.0546875 5.96484375 C-15.03467679 6.64841148 -17.01711292 7.32488427 -19 8 C-19 7.34 -19 6.68 -19 6 C-17.68 5.34 -16.36 4.68 -15 4 C-21.56468195 3.60611908 -25.23653336 5.15768891 -30.625 8.75 C-33 10 -33 10 -35.1484375 9.578125 C-35.75945312 9.38734375 -36.37046875 9.1965625 -37 9 C-35.56542672 8.0165504 -34.12722594 7.03839079 -32.6875 6.0625 C-31.88699219 5.51722656 -31.08648437 4.97195312 -30.26171875 4.41015625 C-27.14159826 2.46479615 -24.35587908 1.84529173 -20.76171875 1.46484375 C-19.94123047 1.37783203 -19.12074219 1.29082031 -18.27539062 1.20117188 C-17.42138672 1.11416016 -16.56738281 1.02714844 -15.6875 0.9375 C-14.84509766 0.84662109 -14.00269531 0.75574219 -13.13476562 0.66210938 C-8.73491067 0.2045795 -4.43084602 -0.10842201 0 0 Z " fill="#42A66E" transform="translate(164,126)"/>
<path d="M0 0 C0.99 0.33 1.98 0.66 3 1 C3.16435547 2.09828125 3.16435547 2.09828125 3.33203125 3.21875 C4.03814577 6.15882917 5.04301247 7.9793157 6.6875 10.5 C10.37323561 16.40788613 13.1888021 22.63991396 16 29 C15.34 29 14.68 29 14 29 C13.67 29.66 13.34 30.32 13 31 C12.49210937 29.97261719 11.98421875 28.94523437 11.4609375 27.88671875 C10.76590761 26.48683882 10.07057403 25.08710964 9.375 23.6875 C8.83564819 22.59840332 8.83564819 22.59840332 8.28540039 21.48730469 C5.69181755 16.28519702 2.91730486 11.22530995 -0.06640625 6.234375 C-1.14451422 3.65413333 -0.98413447 2.56935707 0 0 Z " fill="#BBF3D9" transform="translate(45,92)"/>
<path d="M0 0 C0.33 0.99 0.66 1.98 1 3 C0.34 3 -0.32 3 -1 3 C-1 3.66 -1 4.32 -1 5 C-1.66 5 -2.32 5 -3 5 C-3 5.66 -3 6.32 -3 7 C-3.99 7.495 -3.99 7.495 -5 8 C-5.65213292 10.02463255 -5.65213292 10.02463255 -6 12 C-7.65 12.33 -9.3 12.66 -11 13 C-11 13.99 -11 14.98 -11 16 C-11.99 16 -12.98 16 -14 16 C-14.33 17.32 -14.66 18.64 -15 20 C-15.82000582 17.12997964 -16.07215946 15.30306972 -15.375 12.375 C-13.69683507 9.47635149 -11.96015432 8.48007716 -9 7 C-8.67 7.33 -8.34 7.66 -8 8 C-7.608125 7.195625 -7.21625 6.39125 -6.8125 5.5625 C-5 3 -5 3 -2.3125 2.1875 C-1.549375 2.125625 -0.78625 2.06375 0 2 C0 1.34 0 0.68 0 0 Z " fill="#04AA49" transform="translate(132,108)"/>
<path d="M0 0 C0.33 1.32 0.66 2.64 1 4 C0.29746094 4.40347656 -0.40507812 4.80695313 -1.12890625 5.22265625 C-4.21437553 7.13270866 -7.05314825 9.2361865 -9.9375 11.4375 C-13.8786744 14.44296332 -17.85513052 17.28822995 -22 20 C-21.67 18.68 -21.34 17.36 -21 16 C-20.34 16 -19.68 16 -19 16 C-19 13.03 -19 10.06 -19 7 C-18.67 7 -18.34 7 -18 7 C-18 8.98 -18 10.96 -18 13 C-12.06 8.71 -6.12 4.42 0 0 Z " fill="#C4F6DC" transform="translate(151,88)"/>
<path d="M0 0 C0 1.66666667 0 3.33333333 0 5 C-0.66 5 -1.32 5 -2 5 C-2 6.32 -2 7.64 -2 9 C0.97 9.33 3.94 9.66 7 10 C7 10.99 7 11.98 7 13 C1.39 13 -4.22 13 -10 13 C-8.19572805 9.39145611 -6.55275204 7.18688934 -3.875 4.25 C-3.15054688 3.45078125 -2.42609375 2.6515625 -1.6796875 1.828125 C-0.84824219 0.92320313 -0.84824219 0.92320313 0 0 Z " fill="#17A653" transform="translate(167,111)"/>
<path d="M0 0 C0.66 0.66 1.32 1.32 2 2 C0.84892615 5.45322156 -0.69791943 7.1687499 -3 10 C-5.11892771 12.91245615 -7.18310286 15.86296856 -9.25 18.8125 C-9.80429688 19.60076172 -10.35859375 20.38902344 -10.9296875 21.20117188 C-12.28789845 23.13310987 -13.64462475 25.06607205 -15 27 C-15.83755894 24.65619108 -16.22722371 23.50395312 -15.18310547 21.18823242 C-14.53172607 20.2810144 -14.53172607 20.2810144 -13.8671875 19.35546875 C-13.15175781 18.33936523 -13.15175781 18.33936523 -12.421875 17.30273438 C-11.91140625 16.60470703 -11.4009375 15.90667969 -10.875 15.1875 C-10.14410156 14.15786133 -10.14410156 14.15786133 -9.3984375 13.10742188 C-7.94392186 11.06297635 -6.47299498 9.03115662 -5 7 C-4.04312141 5.66358266 -3.08731178 4.32639898 -2.1328125 2.98828125 C-1.42898437 2.00214844 -0.72515625 1.01601562 0 0 Z " fill="#C5F6DC" transform="translate(132,67)"/>
<path d="M0 0 C2.69185008 1.34592504 2.84753142 2.63010602 3.9453125 5.40234375 C4.29980469 6.29244141 4.65429688 7.18253906 5.01953125 8.09960938 C5.38433594 9.03611328 5.74914062 9.97261719 6.125 10.9375 C6.49753906 11.87013672 6.87007813 12.80277344 7.25390625 13.76367188 C10 20.71943681 10 20.71943681 10 23 C9.34 23 8.68 23 8 23 C8 22.01 8 21.02 8 20 C7.34 20 6.68 20 6 20 C5.67 20.99 5.34 21.98 5 23 C4.34 22.67 3.68 22.34 3 22 C2.65625 20.25 2.65625 20.25 2.5 18 C2.13990181 13.89488061 1.39920097 10.03767394 0.40234375 6.04296875 C0 4 0 4 0 0 Z " fill="#21A45B" transform="translate(65,75)"/>
<path d="M0 0 C1.14713616 1.14713616 2.29361811 2.29493128 3.4375 3.4453125 C4.53145498 4.53379771 5.6366391 5.61105985 6.75 6.6796875 C10.40171132 10.22121787 13.35007587 13.65412442 16 18 C15.34 18.33 14.68 18.66 14 19 C14 18.34 14 17.68 14 17 C12.68 16.67 11.36 16.34 10 16 C10.66 16.99 11.32 17.98 12 19 C11.67 19.99 11.34 20.98 11 22 C9.15984502 18.7121022 7.32904953 15.41908674 5.5 12.125 C4.97535156 11.18785156 4.45070313 10.25070313 3.91015625 9.28515625 C3.41386719 8.38925781 2.91757812 7.49335937 2.40625 6.5703125 C1.94541016 5.74289551 1.48457031 4.91547852 1.00976562 4.06298828 C0 2 0 2 0 0 Z " fill="#2AA55F" transform="translate(47,94)"/>
<path d="M0 0 C0.66 0 1.32 0 2 0 C5.54784971 5.37899794 6.70887831 9.58076669 7 16 C5.06077578 15.54901762 3.12366406 15.08894441 1.1875 14.625 C0.10855469 14.36976562 -0.97039063 14.11453125 -2.08203125 13.8515625 C-5 13 -5 13 -8 11 C-1.9453125 10.8046875 -1.9453125 10.8046875 0 11 C0.66 11.66 1.32 12.32 2 13 C1.34 8.71 0.68 4.42 0 0 Z " fill="#1BA858" transform="translate(42,94)"/>
<path d="M0 0 C0.33 0 0.66 0 1 0 C1.12375 0.804375 1.2475 1.60875 1.375 2.4375 C1.58125 3.283125 1.7875 4.12875 2 5 C2.66 5.33 3.32 5.66 4 6 C4.31241371 8.54941373 4.51303421 11.00361513 4.625 13.5625 C4.66367188 14.27341797 4.70234375 14.98433594 4.7421875 15.71679688 C4.83671783 17.47742425 4.91945817 19.23867728 5 21 C5.66 21 6.32 21 7 21 C9.29612756 36.74487472 9.29612756 36.74487472 9 44 C8.67 44 8.34 44 8 44 C7.01465948 39.34237558 6.03635998 34.68334448 5.06420898 30.02294922 C4.73339996 28.44182696 4.40075914 26.8610867 4.06616211 25.28076172 C2.28522086 16.86321879 0.61186633 8.60059996 0 0 Z " fill="#2EA662" transform="translate(103,51)"/>
<path d="M0 0 C-2.66666667 1.33333333 -5.33333333 2.66666667 -8 4 C-8.65355469 4.37382812 -9.30710938 4.74765625 -9.98046875 5.1328125 C-12.37370656 6.16046974 -13.97217395 6.13655755 -16.5625 6 C-20.4644619 5.90201868 -23.92725678 6.27500447 -27.75 7.0625 C-31.80367619 7.88473503 -34.93480096 8.09870244 -39 7 C-39 6.67 -39 6.34 -39 6 C-37.92105469 5.82984375 -36.84210938 5.6596875 -35.73046875 5.484375 C-26.4255411 3.98804204 -17.20939928 2.28516234 -8.02026367 0.18261719 C-2.21245454 -1.10622727 -2.21245454 -1.10622727 0 0 Z " fill="#29A661" transform="translate(151,145)"/>
<path d="M0 0 C7.74934151 4.88147497 15.39819388 9.89232922 23 15 C22.01 16.485 22.01 16.485 21 18 C20.41508789 17.58637207 19.83017578 17.17274414 19.22753906 16.74658203 C16.57034446 14.86989223 13.9102128 12.99740874 11.25 11.125 C9.86941406 10.14853516 9.86941406 10.14853516 8.4609375 9.15234375 C7.57148437 8.52714844 6.68203125 7.90195313 5.765625 7.2578125 C4.94868164 6.6817627 4.13173828 6.10571289 3.29003906 5.51220703 C1.24290695 4.16040145 -0.78095502 3.03822787 -3 2 C-2.01 2 -1.02 2 0 2 C0 1.34 0 0.68 0 0 Z " fill="#B9F4D5" transform="translate(63,126)"/>
<path d="M0 0 C1.0714288 0.84293966 2.13158468 1.70020668 3.1875 2.5625 C3.77917969 3.03816406 4.37085938 3.51382813 4.98046875 4.00390625 C7.68564235 6.67768518 9.78922647 9.90491706 12 13 C6.06 13 0.12 13 -6 13 C-5.67 13.99 -5.34 14.98 -5 16 C-5.99 15.67 -6.98 15.34 -8 15 C-8 13.68 -8 12.36 -8 11 C-1.55820896 8.77014925 -1.55820896 8.77014925 1.125 9.875 C1.74375 10.24625 2.3625 10.6175 3 11 C5.66709069 11.16750414 5.66709069 11.16750414 8 11 C7.071875 10.7834375 7.071875 10.7834375 6.125 10.5625 C4 10 4 10 2 9 C2.3403125 8.1028125 2.3403125 8.1028125 2.6875 7.1875 C2.8421875 6.1046875 2.8421875 6.1046875 3 5 C1.60411246 3.35405861 1.60411246 3.35405861 0 2 C0 1.34 0 0.68 0 0 Z " fill="#2BA560" transform="translate(32,111)"/>
<path d="M0 0 C1.65 0 3.3 0 5 0 C5.33 0.66 5.66 1.32 6 2 C6.66 2 7.32 2 8 2 C8 2.66 8 3.32 8 4 C8.99 4 9.98 4 11 4 C9.125 7.875 9.125 7.875 8 9 C6.33382885 9.04063832 4.66611905 9.042721 3 9 C2.87625 8.360625 2.7525 7.72125 2.625 7.0625 C2.315625 6.0415625 2.315625 6.0415625 2 5 C1.34 4.67 0.68 4.34 0 4 C0 2.68 0 1.36 0 0 Z " fill="#F9FCFB" transform="translate(43,117)"/>
<path d="M0 0 C0.66 0.66 1.32 1.32 2 2 C1.67 2.66 1.34 3.32 1 4 C1.99 4.33 2.98 4.66 4 5 C0.38671875 9.6875 0.38671875 9.6875 -1 11 C-1.99 11 -2.98 11 -4 11 C-4.33 9.68 -4.66 8.36 -5 7 C-6.32 6.67 -7.64 6.34 -9 6 C-6.03 4.02 -3.06 2.04 0 0 Z " fill="#E9FBF3" transform="translate(159,111)"/>
<path d="M0 0 C2.81328879 0.28527416 5.62560469 0.57647687 8.4375 0.875 C9.26991211 0.96305908 10.10232422 1.05111816 10.95996094 1.1418457 C14.98402522 1.58821847 18.8426614 2.08926143 22.75 3.1875 C28.7103882 4.72836188 34.95854789 3.63594233 41 3 C41 3.66 41 4.32 41 5 C37.35443406 6.21518865 33.98305836 6.18405888 30.1875 6.1875 C29.48818359 6.19974609 28.78886719 6.21199219 28.06835938 6.22460938 C23.59896257 6.23715212 20.18038555 5.4757529 16 4 C12.70916221 3.51694124 9.43407306 3.12761127 6.12695312 2.7890625 C4.40929634 2.59041027 2.70247721 2.30228942 1 2 C0.67 1.34 0.34 0.68 0 0 Z " fill="#25A35F" transform="translate(70,149)"/>
<path d="M0 0 C-3.94713098 1.59471988 -7.89811624 3.1793447 -11.85302734 4.75463867 C-13.19854102 5.29222679 -14.54295191 5.83258349 -15.88623047 6.37573242 C-17.81456482 7.15489335 -19.74661477 7.92408988 -21.6796875 8.69140625 C-22.84226074 9.15748291 -24.00483398 9.62355957 -25.20263672 10.10375977 C-28 11 -28 11 -30 10 C-25.71 7.03 -21.42 4.06 -17 1 C-16.67 1.99 -16.34 2.98 -16 4 C-15.31292969 3.72285156 -14.62585938 3.44570312 -13.91796875 3.16015625 C-13.01691406 2.79792969 -12.11585938 2.43570313 -11.1875 2.0625 C-10.29417969 1.70285156 -9.40085938 1.34320313 -8.48046875 0.97265625 C-3.2431259 -1.08104197 -3.2431259 -1.08104197 0 0 Z " fill="#25A15F" transform="translate(143,135)"/>
<path d="M0 0 C0.33 0 0.66 0 1 0 C2.02646074 4.76655332 3.04135368 9.53536894 4.0456543 14.30664062 C4.38884544 15.92905772 4.73517555 17.55081415 5.0847168 19.171875 C5.5869098 21.50353642 6.0777265 23.83734903 6.56640625 26.171875 C6.72468399 26.89493835 6.88296173 27.61800171 7.04603577 28.36297607 C7.76354526 31.84459897 8.31806672 34.62269281 7 38 C2.42511497 31.13767246 2.6872206 22.01062788 3 14 C2.34 14 1.68 14 1 14 C0.04738513 9.23692563 -0.08333357 4.8333472 0 0 Z " fill="#CCF7E0" transform="translate(104,61)"/>
<path d="M0 0 C2.08108444 3.12162666 2.34469308 5.0916971 2.71484375 8.74609375 C3.01426311 11.11273717 3.50875211 13.36795462 4.0625 15.6875 C4.80448462 18.8642934 5.21173561 21.71809797 5 25 C2 23 2 23 1.29223633 20.93701172 C1.06443481 19.69588623 1.06443481 19.69588623 0.83203125 18.4296875 C0.57583008 17.08583984 0.57583008 17.08583984 0.31445312 15.71484375 C0.14880859 14.77769531 -0.01683594 13.84054688 -0.1875 12.875 C-0.36474609 11.93011719 -0.54199219 10.98523438 -0.72460938 10.01171875 C-1.16102185 7.67632229 -1.58562106 5.33938914 -2 3 C-1.34 3 -0.68 3 0 3 C0 2.01 0 1.02 0 0 Z " fill="#BBF6D8" transform="translate(64,72)"/>
<path d="M0 0 C1.98 0 3.96 0 6 0 C1.58990583 4.85110358 -3.58004353 8.348107 -9 12 C-9.66 11.67 -10.32 11.34 -11 11 C-9.35 7.7 -7.7 4.4 -6 1 C-5.01 1.66 -4.02 2.32 -3 3 C-2.34 3 -1.68 3 -1 3 C-0.67 2.01 -0.34 1.02 0 0 Z " fill="#37AB6C" transform="translate(152,111)"/>
<path d="M0 0 C3.88397689 1.55002747 6.02979619 4.00476621 8.75 7.125 C9.94882813 8.49011719 9.94882813 8.49011719 11.171875 9.8828125 C12.07679687 10.93082031 12.07679687 10.93082031 13 12 C8.78475431 12 6.20136304 9.76377411 2.8125 7.5 C2.15830078 7.07074219 1.50410156 6.64148438 0.83007812 6.19921875 C-0.78396322 5.13889962 -2.39251881 4.07023847 -4 3 C-2.68 2.01 -1.36 1.02 0 0 Z " fill="#28A45F" transform="translate(79,132)"/>
<path d="M0 0 C0.33 0 0.66 0 1 0 C1.16589226 6.02741895 0.57114133 11.57494793 -0.5 17.5 C-0.64308594 18.32242188 -0.78617187 19.14484375 -0.93359375 19.9921875 C-1.28306912 21.99584627 -1.64068156 23.99808298 -2 26 C-2.99 26.33 -3.98 26.66 -5 27 C-4.32969264 20.90373091 -3.23964287 14.99077746 -1.9375 9 C-1.75123047 8.12988281 -1.56496094 7.25976562 -1.37304688 6.36328125 C-0.9183875 4.24153748 -0.45962195 2.12067429 0 0 Z " fill="#29A662" transform="translate(93,83)"/>
<path d="M0 0 C4.5275641 0.61833197 8.5390401 1.76329512 12.8125 3.375 C14.52373047 4.00535156 14.52373047 4.00535156 16.26953125 4.6484375 C17.17058594 5.09445313 18.07164063 5.54046875 19 6 C19.33 6.99 19.66 7.98 20 9 C17.03 8.34 14.06 7.68 11 7 C11 6.01 11 5.02 11 4 C8.08347826 3.83318891 8.08347826 3.83318891 5 4 C4.34 4.66 3.68 5.32 3 6 C0 2.25 0 2.25 0 0 Z " fill="#C5F8DD" transform="translate(28,104)"/>
<path d="M0 0 C-0.28359887 1.4391134 -0.57721399 2.87625518 -0.875 4.3125 C-1.03742188 5.11300781 -1.19984375 5.91351563 -1.3671875 6.73828125 C-2 9 -2 9 -4 12 C-4.66 12 -5.32 12 -6 12 C-6 10.35 -6 8.7 -6 7 C-5.34 7 -4.68 7 -4 7 C-4.495 6.21625 -4.99 5.4325 -5.5 4.625 C-7 2 -7 2 -7 0 C-2.25 -1.125 -2.25 -1.125 0 0 Z " fill="#04AA48" transform="translate(121,94)"/>
<path d="M0 0 C1.32 0.33 2.64 0.66 4 1 C3.01 1.33 2.02 1.66 1 2 C-0.03307106 3.77211082 -0.03307106 3.77211082 -1 6 C-2.19018351 7.92798957 -3.39977163 9.8440892 -4.625 11.75 C-5.57246094 13.22726563 -5.57246094 13.22726563 -6.5390625 14.734375 C-7.02117187 15.48203125 -7.50328125 16.2296875 -8 17 C-9.25541557 13.23375329 -8.37061958 11.62811066 -7 8 C-6.34 8 -5.68 8 -5 8 C-5 6.68 -5 5.36 -5 4 C-4.360625 3.71125 -3.72125 3.4225 -3.0625 3.125 C-0.84793921 2.17176549 -0.84793921 2.17176549 0 0 Z " fill="#1CA559" transform="translate(137,56)"/>
<path d="M0 0 C0.66 1.32 1.32 2.64 2 4 C2.99 4 3.98 4 5 4 C5.33 3.01 5.66 2.02 6 1 C6.99 4.3 7.98 7.6 9 11 C4.16459904 8.38888348 0.12896099 5.62542917 -4 2 C-2.68 1.34 -1.36 0.68 0 0 Z " fill="#2BA55F" transform="translate(72,101)"/>
<path d="M0 0 C0.66 0.33 1.32 0.66 2 1 C1.31113213 4.38891322 0.01283514 7.18011613 -1.5625 10.25 C-2.01753906 11.14203125 -2.47257813 12.0340625 -2.94140625 12.953125 C-3.29074219 13.62859375 -3.64007813 14.3040625 -4 15 C-4.58984375 13.171875 -4.58984375 13.171875 -5 11 C-3.5625 8.25 -3.5625 8.25 -2 6 C-3.98 6.33 -5.96 6.66 -8 7 C-5.42215154 4.35247996 -3.08351902 2.05567935 0 0 Z " fill="#CEF8E2" transform="translate(160,81)"/>
<path d="M0 0 C0.64324219 0.06058594 1.28648438 0.12117188 1.94921875 0.18359375 C2.85285156 0.26738281 3.75648437 0.35117188 4.6875 0.4375 C5.68265625 0.5303125 6.6778125 0.623125 7.703125 0.71875 C9.9614751 0.91140546 12.22227576 1.0767348 14.484375 1.21875 C16.19367187 1.32703125 16.19367187 1.32703125 17.9375 1.4375 C18.99839844 1.49808594 20.05929688 1.55867188 21.15234375 1.62109375 C24 2 24 2 28 4 C22.72 3.67 17.44 3.34 12 3 C12 3.66 12 4.32 12 5 C10.37276701 4.54965877 8.74826336 4.08944646 7.125 3.625 C5.76761719 3.24214844 5.76761719 3.24214844 4.3828125 2.8515625 C2 2 2 2 0 0 Z " fill="#42A46D" transform="translate(36,126)"/>
<path d="M0 0 C2.32472205 2.85306797 3.7508258 5.54074837 5 9 C3.68 8.67 2.36 8.34 1 8 C1 9.32 1 10.64 1 12 C-3.31392226 11.5206753 -5.16569547 10.2542015 -8 7 C-2.25 8.875 -2.25 8.875 0 10 C-0.99 8.68 -1.98 7.36 -3 6 C-2.01 5.34 -1.02 4.68 0 4 C0 2.68 0 1.36 0 0 Z " fill="#36A86A" transform="translate(48,103)"/>
<path d="M0 0 C0.59425781 0.19335938 1.18851563 0.38671875 1.80078125 0.5859375 C8.13972563 2.57733216 14.44364086 3.94051231 21 5 C21 5.33 21 5.66 21 6 C14.07 5.67 7.14 5.34 0 5 C0 3.35 0 1.7 0 0 Z " fill="#20A45C" transform="translate(48,143)"/>
<path d="M0 0 C0.33 0 0.66 0 1 0 C1 3.63 1 7.26 1 11 C2.65 10.67 4.3 10.34 6 10 C1.375 14.875 1.375 14.875 -2 16 C-1.42978066 10.6496441 -0.79265639 5.32212148 0 0 Z " fill="#2FA664" transform="translate(135,85)"/>
<path d="M0 0 C3.25100777 0.0810513 6.50016335 0.19387649 9.75 0.3125 C10.67039062 0.33505859 11.59078125 0.35761719 12.5390625 0.38085938 C13.42851563 0.41630859 14.31796875 0.45175781 15.234375 0.48828125 C16.05131836 0.51446533 16.86826172 0.54064941 17.70996094 0.56762695 C20.45994617 1.08684058 21.90229473 2.19083451 24 4 C18.26861756 4.15490223 13.10650794 3.65244885 7.5 2.5 C6.77296875 2.35691406 6.0459375 2.21382812 5.296875 2.06640625 C3.52990929 1.71766302 1.76474691 1.35980277 0 1 C0 0.67 0 0.34 0 0 Z " fill="#C4F3D8" transform="translate(58,146)"/>
<path d="M0 0 C0.33 0.66 0.66 1.32 1 2 C0.09176973 4.43557572 -0.86828071 6.76195517 -1.9375 9.125 C-2.22818359 9.78371094 -2.51886719 10.44242188 -2.81835938 11.12109375 C-3.53860198 12.75049505 -4.26841143 14.37566132 -5 16 C-5.66 15.34 -6.32 14.68 -7 14 C-7.99 14.495 -7.99 14.495 -9 15 C-7.61219205 11.10993227 -5.7847773 8.03441292 -3.375 4.6875 C-2.74335938 3.80449219 -2.11171875 2.92148438 -1.4609375 2.01171875 C-0.97882813 1.34785156 -0.49671875 0.68398437 0 0 Z " fill="#2FA060" transform="translate(132,71)"/>
<path d="M0 0 C0.99 0 1.98 0 3 0 C3 2.64 3 5.28 3 8 C2.01 8.33 1.02 8.66 0 9 C-0.66 9.99 -1.32 10.98 -2 12 C-2.17835515 7.45194365 -1.99785435 4.1205746 0 0 Z " fill="#1DA756" transform="translate(113,123)"/>
<path d="M0 0 C0.66 0 1.32 0 2 0 C2.33 0.99 2.66 1.98 3 3 C5.10584438 3.80563638 5.10584438 3.80563638 7.5625 4.1875 C8.38878906 4.34605469 9.21507812 4.50460938 10.06640625 4.66796875 C10.70449219 4.77753906 11.34257813 4.88710937 12 5 C12 5.33 12 5.66 12 6 C6.16905105 6.21203451 0.55586224 5.96947414 -5 4 C-5.33 3.34 -5.66 2.68 -6 2 C-4.02 1.67 -2.04 1.34 0 1 C0 0.67 0 0.34 0 0 Z " fill="#C4F4DB" transform="translate(43,122)"/>
<path d="M0 0 C0.91058531 3.07322544 1.08886184 5.80097361 1 9 C1.99 9.33 2.98 9.66 4 10 C1.36 11.98 -1.28 13.96 -4 16 C-4 15.01 -4 14.02 -4 13 C-3.34 13 -2.68 13 -2 13 C-2.3403125 11.7315625 -2.3403125 11.7315625 -2.6875 10.4375 C-3.09143364 5.99422997 -1.97302401 3.94604801 0 0 Z " fill="#D3F8E2" transform="translate(119,103)"/>
<path d="M0 0 C4.83540096 2.61111652 8.87103901 5.37457083 13 9 C12.34 9.66 11.68 10.32 11 11 C11 10.34 11 9.68 11 9 C8.69 8.67 6.38 8.34 4 8 C3.896875 7.360625 3.79375 6.72125 3.6875 6.0625 C3.460625 5.381875 3.23375 4.70125 3 4 C2.01 3.67 1.02 3.34 0 3 C0 2.01 0 1.02 0 0 Z " fill="#D9F9E9" transform="translate(64,100)"/>
<path d="M0 0 C3.057952 1.73559438 5.63379989 3.38472619 8 6 C6.68 6.33 5.36 6.66 4 7 C3.67 8.32 3.34 9.64 3 11 C-1.06153846 4.6 -1.06153846 4.6 -0.75 1.5625 C-0.5025 1.046875 -0.255 0.53125 0 0 Z " fill="#CCF8E3" transform="translate(39,81)"/>
<path d="M0 0 C0 0.99 0 1.98 0 3 C2.97 3.495 2.97 3.495 6 4 C6 3.34 6 2.68 6 2 C8.64 2 11.28 2 14 2 C14 2.99 14 3.98 14 5 C8.39 5 2.78 5 -3 5 C-1 1 -1 1 0 0 Z " fill="#2FA660" transform="translate(160,119)"/>
<path d="M0 0 C1.11520646 2.97388391 0.9125931 4.46881884 0.3125 7.6875 C-0.39292116 12.21749373 1.08788132 15.15277592 3.1875 19.1171875 C3.455625 19.73851563 3.72375 20.35984375 4 21 C3.67 21.66 3.34 22.32 3 23 C-1.23390954 17.99628872 -2.21864336 13.69959799 -1.6875 7.25 C-1.17128028 2.34256055 -1.17128028 2.34256055 0 0 Z " fill="#D5FBE5" transform="translate(87,106)"/>
<path d="M0 0 C-1.20976305 3.62928915 -2.27875374 4.11351038 -5.4375 6.125 C-6.24058594 6.64320312 -7.04367188 7.16140625 -7.87109375 7.6953125 C-10 9 -10 9 -12 10 C-12 8.68 -12 7.36 -12 6 C-11.01 6 -10.02 6 -9 6 C-9 5.34 -9 4.68 -9 4 C-8.01 4 -7.02 4 -6 4 C-6 3.01 -6 2.02 -6 1 C-3 0 -3 0 0 0 Z " fill="#24A75E" transform="translate(162,79)"/>
<path d="M0 0 C2.6855594 2.6855594 3.06049974 5.37621328 4 9 C3.01 9 2.02 9 1 9 C1 9.99 1 10.98 1 12 C0.01 12.33 -0.98 12.66 -2 13 C-2.99 11.68 -3.98 10.36 -5 9 C-3.68 9.33 -2.36 9.66 -1 10 C-0.37542727 6.56484998 0 3.50935186 0 0 Z " fill="#D8F8E7" transform="translate(91,129)"/>
<path d="M0 0 C1.485 0.99 1.485 0.99 3 2 C3.1875 5.625 3.1875 5.625 3 9 C3.66 9 4.32 9 5 9 C5.33 8.01 5.66 7.02 6 6 C6.33 6.66 6.66 7.32 7 8 C6.06421005 10.35981813 5.06652192 12.69631264 4 15 C2.1866078 11.79989612 1.47786026 8.86716157 0.875 5.25 C0.70742187 4.26515625 0.53984375 3.2803125 0.3671875 2.265625 C0.24601562 1.51796875 0.12484375 0.7703125 0 0 Z " fill="#2CA260" transform="translate(112,97)"/>
<path d="M0 0 C0.99 0 1.98 0 3 0 C3.33 2.31 3.66 4.62 4 7 C4.66 7 5.32 7 6 7 C8.06878307 11.38095238 8.06878307 11.38095238 7.75 14.25 C7 16 7 16 5 17 C4.9175 16.05125 4.835 15.1025 4.75 14.125 C4.06008234 9.11022533 1.99662356 4.61545074 0 0 Z " fill="#D8F7E7" transform="translate(75,97)"/>
<path d="M0 0 C2 1 2 1 2.88671875 3.07421875 C4.41800778 8.07144978 5.50225103 11.81040552 4 17 C2.48300584 14.19547298 1.54691437 11.6142698 0.875 8.5 C0.70742187 7.7471875 0.53984375 6.994375 0.3671875 6.21875 C0 4 0 4 0 0 Z " fill="#40A168" transform="translate(65,75)"/>
<path d="M0 0 C0.66 0.33 1.32 0.66 2 1 C2.49230769 7.4 2.49230769 7.4 0 10.4375 C-0.99 11.2109375 -0.99 11.2109375 -2 12 C-2.17835515 7.45194365 -1.99785435 4.1205746 0 0 Z " fill="#F8FCFA" transform="translate(135,67)"/>
<path d="M0 0 C0.66 0.99 1.32 1.98 2 3 C-0.31 6.3 -2.62 9.6 -5 13 C-6 9 -6 9 -4.78515625 6.640625 C-4.21667969 5.85171875 -3.64820312 5.0628125 -3.0625 4.25 C-2.49660156 3.45078125 -1.93070312 2.6515625 -1.34765625 1.828125 C-0.90292969 1.22484375 -0.45820312 0.6215625 0 0 Z " fill="#B7F5D4" transform="translate(122,81)"/>
<path d="M0 0 C0.33 0 0.66 0 1 0 C1.24991456 6.65050424 0.73955334 12.56986533 -1 19 C-1.66 18.67 -2.32 18.34 -3 18 C-2.19500136 11.96251023 -1.11517502 5.98729887 0 0 Z " fill="#2FA867" transform="translate(139,66)"/>
<path d="M0 0 C0.66 0 1.32 0 2 0 C2.66 0.99 3.32 1.98 4 3 C4.99 3.33 5.98 3.66 7 4 C7.73046875 6.06640625 7.73046875 6.06640625 8.1875 8.5625 C8.34605469 9.38878906 8.50460938 10.21507813 8.66796875 11.06640625 C8.77753906 11.70449219 8.88710937 12.34257813 9 13 C5.12539657 9.55590806 2.50927545 5.49407119 0 1 C0 0.67 0 0.34 0 0 Z " fill="#27A65E" transform="translate(71,71)"/>
<path d="M0 0 C6.44070471 -0.10655578 12.62641289 0.03794912 19 1 C19 1.33 19 1.66 19 2 C12.18597425 3.05268874 6.63198569 2.93833398 0 1 C0 0.67 0 0.34 0 0 Z " fill="#C2F2D7" transform="translate(88,151)"/>
<path d="M0 0 C0.66 0.66 1.32 1.32 2 2 C1.67 2.66 1.34 3.32 1 4 C1.99 4.33 2.98 4.66 4 5 C2.35 6.65 0.7 8.3 -1 10 C-1.93423645 6.98968256 -2.04449911 6.13349732 -1 3 C-1.66 2.67 -2.32 2.34 -3 2 C-2.01 1.34 -1.02 0.68 0 0 Z " fill="#E2F9EA" transform="translate(159,111)"/>
<path d="M0 0 C0.33 0 0.66 0 1 0 C1.33 2.31 1.66 4.62 2 7 C1.34 7 0.68 7 0 7 C-0.28875 7.598125 -0.5775 8.19625 -0.875 8.8125 C-2 11 -2 11 -4 14 C-5.305239 10.08428299 -4.32239848 8.96107003 -2.5625 5.3125 C-2.08941406 4.31863281 -1.61632812 3.32476562 -1.12890625 2.30078125 C-0.75636719 1.54152344 -0.38382813 0.78226562 0 0 Z " fill="#DAF9E8" transform="translate(132,73)"/>
<path d="M0 0 C0.33 0 0.66 0 1 0 C1.05429959 1.74965358 1.09292823 3.49979787 1.125 5.25 C1.14820312 6.22453125 1.17140625 7.1990625 1.1953125 8.203125 C0.99862781 11.0196498 0.44568916 12.60949036 -1 15 C-1.66 15 -2.32 15 -3 15 C-2.5547115 9.72684667 -1.91626837 4.98229776 0 0 Z " fill="#2FA360" transform="translate(97,66)"/>
<path d="M0 0 C0.33 0 0.66 0 1 0 C0.51679152 6.2054142 -0.33318124 11.99945246 -2 18 C-2.33 18 -2.66 18 -3 18 C-3.37634203 11.19796625 -2.77471079 6.24309927 0 0 Z " fill="#28A560" transform="translate(96,51)"/>
<path d="M0 0 C1.32 0 2.64 0 4 0 C4.66 2.97 5.32 5.94 6 9 C7.32 9.33 8.64 9.66 10 10 C9.67 10.99 9.34 11.98 9 13 C3.78539349 9.66844584 2.12984211 5.56852575 0 0 Z " fill="#29A55E" transform="translate(59,117)"/>
<path d="M0 0 C0.99 0.33 1.98 0.66 3 1 C3.33 3.64 3.66 6.28 4 9 C3.34 8.67 2.68 8.34 2 8 C2 6.68 2 5.36 2 4 C1.34 4 0.68 4 0 4 C-0.33 5.65 -0.66 7.3 -1 9 C-2.0326802 6.21176345 -2.04509293 5.1322726 -1.0625 2.25 C-0.711875 1.5075 -0.36125 0.765 0 0 Z " fill="#B4F0CD" transform="translate(99,45)"/>
<path d="M0 0 C-0.66 0.66 -1.32 1.32 -2 2 C-1.01 2.66 -0.02 3.32 1 4 C-2.63 4 -6.26 4 -10 4 C-4.5 -1.5 -4.5 -1.5 0 0 Z " fill="#F5FEFA" transform="translate(124,145)"/>
<path d="M0 0 C1.50539661 0.94983358 3.00420347 1.91011891 4.5 2.875 C5.3353125 3.40867188 6.170625 3.94234375 7.03125 4.4921875 C7.6809375 4.98976562 8.330625 5.48734375 9 6 C9 6.66 9 7.32 9 8 C4.96479403 6.41037341 0.98188718 4.71767682 -3 3 C-2.01 2.67 -1.02 2.34 0 2 C0 1.34 0 0.68 0 0 Z " fill="#C1F7DD" transform="translate(63,126)"/>
<path d="M0 0 C0 0.66 0 1.32 0 2 C-6.15384615 6.06153846 -6.15384615 6.06153846 -10.4375 5.75 C-11.283125 5.5025 -12.12875 5.255 -13 5 C-10.54278328 3.36185552 -8.65432189 2.38047801 -5.9375 1.375 C-5.24527344 1.11460938 -4.55304688 0.85421875 -3.83984375 0.5859375 C-2 0 -2 0 0 0 Z " fill="#D8F4E5" transform="translate(166,126)"/>
<path d="M0 0 C1.7936743 1.1217963 3.5848773 2.24754483 5.375 3.375 C6.37273438 4.00148438 7.37046875 4.62796875 8.3984375 5.2734375 C11 7 11 7 13 9 C11.68 9 10.36 9 9 9 C9 8.34 9 7.68 9 7 C8.01 7.33 7.02 7.66 6 8 C6 7.01 6 6.02 6 5 C5.01 5.33 4.02 5.66 3 6 C0.8614515 3.8614515 0.57344937 2.86724686 0 0 Z " fill="#D9F8E6" transform="translate(42,112)"/>
<path d="M0 0 C-0.99 0.33 -1.98 0.66 -3 1 C-3 1.99 -3 2.98 -3 4 C-5.76264289 4.59732819 -8.16032769 5 -11 5 C-10 2 -10 2 -8.22265625 1.015625 C-7.15337891 0.63664062 -7.15337891 0.63664062 -6.0625 0.25 C-5.35222656 -0.01296875 -4.64195312 -0.2759375 -3.91015625 -0.546875 C-2 -1 -2 -1 0 0 Z " fill="#BDEED5" transform="translate(164,107)"/>
<path d="M0 0 C1.32 0.33 2.64 0.66 4 1 C3.8125 3.375 3.8125 3.375 3 6 C0.4375 7.3125 0.4375 7.3125 -2 8 C-2 4.79604584 -1.25664978 2.90600261 0 0 Z " fill="#F7FCFB" transform="translate(143,102)"/>
<path d="M0 0 C0.99 0.33 1.98 0.66 3 1 C0.69 4.3 -1.62 7.6 -4 11 C-5 8 -5 8 -3.6875 4.375 C-2 1 -2 1 0 0 Z " fill="#23A55E" transform="translate(125,73)"/>
<path d="M0 0 C0.33 1.32 0.66 2.64 1 4 C-1.6860286 5.79068573 -3.6626589 6.66055791 -6.6875 7.625 C-7.49574219 7.88539063 -8.30398437 8.14578125 -9.13671875 8.4140625 C-9.75160156 8.60742188 -10.36648437 8.80078125 -11 9 C-7.67149253 5.40521193 -4.01028669 2.77635232 0 0 Z " fill="#3F9E6C" transform="translate(124,137)"/>
<path d="M0 0 C0.33 0.66 0.66 1.32 1 2 C-1.33333333 4.33333333 -3.66666667 6.66666667 -6 9 C-7.32 8.67 -8.64 8.34 -10 8 C-6.7 5.36 -3.4 2.72 0 0 Z " fill="#23A45D" transform="translate(169,129)"/>
<path d="M0 0 C0.99 0 1.98 0 3 0 C3.33 2.31 3.66 4.62 4 7 C1 7 1 7 -0.6875 5.5 C-1.120625 5.005 -1.55375 4.51 -2 4 C-1.34 2.68 -0.68 1.36 0 0 Z " fill="#12AA50" transform="translate(73,98)"/>
<path d="M0 0 C2.60018816 3.90028225 2.15085514 7.47434569 2 12 C-0.49276563 9.50723437 -1.03922708 7.36270521 -2 4 C-2 3.01 -2 2.02 -2 1 C-1.34 0.67 -0.68 0.34 0 0 Z " fill="#17A555" transform="translate(58,58)"/>
<path d="M0 0 C0.66 0.33 1.32 0.66 2 1 C0.85760183 2.33627775 -0.28901055 3.66895388 -1.4375 5 C-2.07558594 5.7425 -2.71367188 6.485 -3.37109375 7.25 C-4.17740234 8.11625 -4.17740234 8.11625 -5 9 C-5.33 9 -5.66 9 -6 9 C-6 7.35 -6 5.7 -6 4 C-5.01 4 -4.02 4 -3 4 C-3 3.01 -3 2.02 -3 1 C-2.01 0.67 -1.02 0.34 0 0 Z " fill="#22A55A" transform="translate(124,120)"/>
<path d="M0 0 C1 2 2 4 3 6 C2.34 6.66 1.68 7.32 1 8 C1.66 8.33 2.32 8.66 3 9 C2.67 9.66 2.34 10.32 2 11 C-0.31 9.35 -2.62 7.7 -5 6 C-4.34 5.67 -3.68 5.34 -3 5 C-2.34 5.33 -1.68 5.66 -1 6 C-0.67 4.02 -0.34 2.04 0 0 Z " fill="#29A661" transform="translate(65,91)"/>
<path d="M0 0 C0.33 0 0.66 0 1 0 C1.77916092 5.02125926 2.13016601 8.97703996 1 14 C0.01 13.67 -0.98 13.34 -2 13 C-1.34 8.71 -0.68 4.42 0 0 Z " fill="#B5F2D3" transform="translate(93,69)"/>
<path d="M0 0 C0.66 0 1.32 0 2 0 C2 0.66 2 1.32 2 2 C3.98 2 5.96 2 8 2 C3.16353702 5.22430866 0.73060016 5.09242903 -5 5 C-4.360625 4.731875 -3.72125 4.46375 -3.0625 4.1875 C-0.66868314 3.11332248 -0.66868314 3.11332248 0 0 Z " fill="#CEF6DF" transform="translate(155,122)"/>
<path d="M0 0 C0.99 0 1.98 0 3 0 C3.66 1.65 4.32 3.3 5 5 C4.34 5 3.68 5 3 5 C3 7.31 3 9.62 3 12 C0.60926555 8.17482487 0.44033448 4.40334476 0 0 Z " fill="#C3F7D9" transform="translate(59,58)"/>
<path d="M0 0 C0.33 0 0.66 0 1 0 C1.12375 0.804375 1.2475 1.60875 1.375 2.4375 C1.58125 3.283125 1.7875 4.12875 2 5 C2.66 5.33 3.32 5.66 4 6 C4 8.64 4 11.28 4 14 C2 13 2 13 0.875 9.8125 C0.08319763 6.36250398 -0.1714979 3.515707 0 0 Z " fill="#24A559" transform="translate(103,51)"/>
<path d="M0 0 C0 0.66 0 1.32 0 2 C-3.97193147 5.12940055 -7.04230204 5.29162929 -12 5 C-9.9330412 2.9330412 -8.69369158 2.35542451 -6 1.375 C-5.29875 1.11460937 -4.5975 0.85421875 -3.875 0.5859375 C-2 0 -2 0 0 0 Z " fill="#D3FAE9" transform="translate(153,131)"/>
<path d="M0 0 C0.99 0.33 1.98 0.66 3 1 C3.144375 1.7425 3.28875 2.485 3.4375 3.25 C3.90187492 5.52027739 4.41863569 7.75759479 5 10 C2 9 2 9 0.25 6.6875 C-1 4 -1 4 -0.6875 1.6875 C-0.460625 1.130625 -0.23375 0.57375 0 0 Z " fill="#C7F5DD" transform="translate(45,92)"/>
<path d="M0 0 C0.33 0 0.66 0 1 0 C1.36504603 1.58086048 1.71660506 3.16483907 2.0625 4.75 C2.25972656 5.63171875 2.45695312 6.5134375 2.66015625 7.421875 C2.99825872 9.98679028 2.81158635 11.57091639 2 14 C-1.27137992 8.76579213 -1.10643764 5.83394389 0 0 Z " fill="#38AA6D" transform="translate(87,110)"/>
<path d="M0 0 C-1.29299694 2.88437779 -2.65941363 4.87219421 -5 7 C-5.66 5.02 -6.32 3.04 -7 1 C-4 0 -4 0 0 0 Z " fill="#C3F8DD" transform="translate(172,104)"/>
<path d="M0 0 C0.66 0.33 1.32 0.66 2 1 C-0.64 3.97 -3.28 6.94 -6 10 C-6.33 9.34 -6.66 8.68 -7 8 C-7.66 7.67 -8.32 7.34 -9 7 C-6.03 4.69 -3.06 2.38 0 0 Z " fill="#4FA376" transform="translate(149,92)"/>
<path d="M0 0 C0.33 1.32 0.66 2.64 1 4 C-3.625 7 -3.625 7 -7 7 C-5.66667905 3.00003714 -3.5042173 2.16217663 0 0 Z " fill="#C6F7DE" transform="translate(151,88)"/>
<path d="M0 0 C2.4375 1.5625 2.4375 1.5625 5 4 C5.8125 7.75 5.8125 7.75 6 11 C4.68 10.34 3.36 9.68 2 9 C2.226875 8.401875 2.45375 7.80375 2.6875 7.1875 C2.790625 6.465625 2.89375 5.74375 3 5 C1.60411246 3.35405861 1.60411246 3.35405861 0 2 C0 1.34 0 0.68 0 0 Z " fill="#17A658" transform="translate(32,111)"/>
<path d="M0 0 C2.93200474 2.85276137 5.64315404 5.65079784 8 9 C6.68 9 5.36 9 4 9 C0 2.25 0 2.25 0 0 Z " fill="#48A16E" transform="translate(47,94)"/>
<path d="M0 0 C2.31 0.66 4.62 1.32 7 2 C7.33 3.65 7.66 5.3 8 7 C7.01 7.495 7.01 7.495 6 8 C5.7525 7.38125 5.505 6.7625 5.25 6.125 C3.79371361 3.64931313 2.62187494 3.04874998 0 2 C0 1.34 0 0.68 0 0 Z " fill="#DEFAEC" transform="translate(76,142)"/>
<path d="M0 0 C0.33 1.32 0.66 2.64 1 4 C-0.65 5.32 -2.3 6.64 -4 8 C-4.66 7.67 -5.32 7.34 -6 7 C-4.02 4.69 -2.04 2.38 0 0 Z " fill="#D6F9E6" transform="translate(142,102)"/>
<path d="M0 0 C0.53625 0.2475 1.0725 0.495 1.625 0.75 C-3.79038462 4.81153846 -3.79038462 4.81153846 -6.75 4.5 C-7.28625 4.2525 -7.8225 4.005 -8.375 3.75 C-2.95961538 -0.31153846 -2.95961538 -0.31153846 0 0 Z " fill="#26A75D" transform="translate(135.375,131.25)"/>
<path d="M0 0 C2.64 0 5.28 0 8 0 C7.01 0.66 6.02 1.32 5 2 C5.66 2.33 6.32 2.66 7 3 C6.67 3.66 6.34 4.32 6 5 C4.02 4.01 2.04 3.02 0 2 C0 1.34 0 0.68 0 0 Z " fill="#21A55B" transform="translate(48,129)"/>
<path d="M0 0 C0 0.66 0 1.32 0 2 C-0.9590625 2.680625 -0.9590625 2.680625 -1.9375 3.375 C-4.2676157 5.21084873 -4.60401298 6.12909413 -5 9 C-5.99 9 -6.98 9 -8 9 C-6.68994234 5.06982701 -4.75047804 0 0 0 Z " fill="#2CA664" transform="translate(122,114)"/>
<path d="M0 0 C0.33 0.66 0.66 1.32 1 2 C2.65 1.67 4.3 1.34 6 1 C3.11912454 3.40072955 0.43595166 5.47291037 -3 7 C-2.01 4.69 -1.02 2.38 0 0 Z " fill="#40A56F" transform="translate(144,116)"/>
<path d="M0 0 C2.64752004 2.57784846 4.94432065 4.91648098 7 8 C5.35 7.67 3.7 7.34 2 7 C1.34 4.69 0.68 2.38 0 0 Z " fill="#29A860" transform="translate(63,112)"/>
<path d="M0 0 C3.67033927 3.27708863 5.69281189 6.71522208 8 11 C6 11 6 11 4 9.4375 C1.54601052 6.44670033 0.86224673 3.73640248 0 0 Z " fill="#CCF6E0" transform="translate(79,84)"/>
<path d="M0 0 C-0.8125 2.4375 -0.8125 2.4375 -2 5 C-2.99 5.33 -3.98 5.66 -5 6 C-5.33 4.35 -5.66 2.7 -6 1 C-4 0 -4 0 0 0 Z " fill="#F7FEFC" transform="translate(158,87)"/>
<path d="M0 0 C1.32 0.66 2.64 1.32 4 2 C3.67 2.33 3.34 2.66 3 3 C3.66 3.33 4.32 3.66 5 4 C4.67 4.66 4.34 5.32 4 6 C2.02 6 0.04 6 -2 6 C-1.34 4.02 -0.68 2.04 0 0 Z " fill="#18A855" transform="translate(162,82)"/>
<path d="M0 0 C2.9719385 1.12451727 5.33440687 2.22293791 8 4 C6.02 4.33 4.04 4.66 2 5 C1.34 3.35 0.68 1.7 0 0 Z " fill="#CFF0DE" transform="translate(85,142)"/>
<path d="M0 0 C-1.47692308 4.67692308 -1.47692308 4.67692308 -4.125 6.3125 C-5.053125 6.6528125 -5.053125 6.6528125 -6 7 C-6.33 6.34 -6.66 5.68 -7 5 C-2.25 0 -2.25 0 0 0 Z " fill="#1DA75A" transform="translate(155,141)"/>
<path d="M0 0 C1.8871875 0.0309375 1.8871875 0.0309375 3.8125 0.0625 C3.8125 0.3925 3.8125 0.7225 3.8125 1.0625 C-0.3071377 2.35493536 -3.85581683 3.32502625 -8.1875 3.0625 C-6.45706736 -0.39836529 -3.47359009 -0.0569441 0 0 Z " fill="#33AA69" transform="translate(143.1875,127.9375)"/>
<path d="M0 0 C1.98 0 3.96 0 6 0 C5 3 5 3 2 5 C1.01 4.67 0.02 4.34 -1 4 C-0.01 3.67 0.98 3.34 2 3 C2 2.34 2 1.68 2 1 C1.34 0.67 0.68 0.34 0 0 Z " fill="#F8FDFC" transform="translate(164,125)"/>
<path d="M0 0 C4 0 4 0 7 1 C7 1.66 7 2.32 7 3 C5.02 3.33 3.04 3.66 1 4 C0.67 2.68 0.34 1.36 0 0 Z " fill="#DAF9E6" transform="translate(55,121)"/>
<path d="M0 0 C0.66 0.33 1.32 0.66 2 1 C0.9375 2.9375 0.9375 2.9375 -1 5 C-4.6875 5.75 -4.6875 5.75 -8 6 C-5.38485683 3.87961365 -2.80362384 1.86908256 0 0 Z " fill="#DBF8E6" transform="translate(148,118)"/>
<path d="M0 0 C0.33 0.99 0.66 1.98 1 3 C-0.65 4.65 -2.3 6.3 -4 8 C-4.66 7.67 -5.32 7.34 -6 7 C-4.02 4.69 -2.04 2.38 0 0 Z " fill="#D1F8E0" transform="translate(135,110)"/>
<path d="M0 0 C0.33 0 0.66 0 1 0 C1.33 2.31 1.66 4.62 2 7 C0.35 7.33 -1.3 7.66 -3 8 C-3 6.68 -3 5.36 -3 4 C-2.34 4 -1.68 4 -1 4 C-0.67 2.68 -0.34 1.36 0 0 Z " fill="#07A74E" transform="translate(150,108)"/>
<path d="M0 0 C2.39763185 2.39763185 2.34280586 3.33273498 2.625 6.625 C2.69976562 7.44226563 2.77453125 8.25953125 2.8515625 9.1015625 C2.90054688 9.72804688 2.94953125 10.35453125 3 11 C1.03553095 9.3655205 0.07682209 8.53570606 -0.29296875 5.95703125 C-0.1953125 3.97135417 -0.09765625 1.98567708 0 0 Z " fill="#DBFCEC" transform="translate(109,88)"/>
<path d="M0 0 C1.32 0.33 2.64 0.66 4 1 C4 2.65 4 4.3 4 6 C3.01 5.67 2.02 5.34 1 5 C0.67 3.35 0.34 1.7 0 0 Z " fill="#07A74B" transform="translate(49,111)"/>
<path d="M0 0 C1.64350079 3.28700157 2.41321669 5.47930015 3 9 C1.68 9.33 0.36 9.66 -1 10 C-0.67 6.7 -0.34 3.4 0 0 Z " fill="#D4F5E3" transform="translate(113,104)"/>
<path d="M0 0 C1.00000429 4.00001715 0.80688405 6.05523353 0 10 C-0.99 9.67 -1.98 9.34 -3 9 C-2.01 6.03 -1.02 3.06 0 0 Z " fill="#CBF2DD" transform="translate(119,103)"/>
<path d="M0 0 C0.99 0.33 1.98 0.66 3 1 C-2.75 6 -2.75 6 -5 6 C-4.67 4.68 -4.34 3.36 -4 2 C-2.68 2 -1.36 2 0 2 C0 1.34 0 0.68 0 0 Z " fill="#2BA25D" transform="translate(146,89)"/>
<path d="M0 0 C2.50037734 2.17424117 3.43628586 3.73045798 4 7 C2.68 7.33 1.36 7.66 0 8 C0 5.36 0 2.72 0 0 Z " fill="#E8FBF0" transform="translate(76,80)"/>
<path d="M0 0 C0.33 0.66 0.66 1.32 1 2 C0.06421005 4.35981813 -0.93347808 6.69631264 -2 9 C-2.99 9 -3.98 9 -5 9 C-3.50163895 5.88801935 -1.80066242 2.9465385 0 0 Z " fill="#57A67E" transform="translate(132,71)"/>
<path d="M0 0 C3.67420866 0.30618405 4.78135513 0.75771784 7.3125 3.5625 C8.1478125 4.7690625 8.1478125 4.7690625 9 6 C5.06326356 4.68775452 2.77280706 3.08089673 0 0 Z " fill="#5BA980" transform="translate(83,139)"/>
<path d="M0 0 C0.33 0.66 0.66 1.32 1 2 C0.3125 4.0625 0.3125 4.0625 -1 6 C-3.125 6.75 -3.125 6.75 -5 7 C-3.47793991 4.37098712 -2.15634036 2.15634036 0 0 Z " fill="#D5F9E6" transform="translate(128,118)"/>
<path d="M0 0 C2.31 0.33 4.62 0.66 7 1 C6.67 2.32 6.34 3.64 6 5 C3.98079663 3.69593116 1.98075027 2.36176581 0 1 C0 0.67 0 0.34 0 0 Z " fill="#24A65D" transform="translate(53,91)"/>
<path d="M0 0 C0.99 0.33 1.98 0.66 3 1 C1.69593116 3.01920337 0.36176581 5.01924973 -1 7 C-1.33 7 -1.66 7 -2 7 C-2 5.35 -2 3.7 -2 2 C-1.34 2 -0.68 2 0 2 C0 1.34 0 0.68 0 0 Z " fill="#1FA65B" transform="translate(117,84)"/>
<path d="M0 0 C0.66 0.99 1.32 1.98 2 3 C1.125 6.6875 1.125 6.6875 0 10 C-0.33 10 -0.66 10 -1 10 C-1.33 7.69 -1.66 5.38 -2 3 C-1.34 3 -0.68 3 0 3 C0 2.01 0 1.02 0 0 Z " fill="#B1E9CB" transform="translate(64,72)"/>
</svg>
